<svg xmlns="http://www.w3.org/2000/svg" xmlns:xlink="http://www.w3.org/1999/xlink" width="1200" zoomAndPan="magnify" viewBox="0 0 900 470.25" height="627" preserveAspectRatio="xMidYMid meet" version="1.0"><defs><g/><clipPath id="94e13e5000"><path d="M 0.714844 0 L 899.28125 0 L 899.28125 469.5 L 0.714844 469.5 Z M 0.714844 0 " clip-rule="nonzero"/></clipPath><clipPath id="42688f8e6d"><path d="M 60.976562 170 L 373.226562 170 L 373.226562 320.046875 L 60.976562 320.046875 Z M 60.976562 170 " clip-rule="nonzero"/></clipPath><clipPath id="2876b8c4ca"><path d="M 72 115.621094 L 362 115.621094 L 362 296 L 72 296 Z M 72 115.621094 " clip-rule="nonzero"/></clipPath></defs><g clip-path="url(#94e13e5000)"><path fill="#ffffff" d="M 0.714844 0 L 899.285156 0 L 899.285156 469.5 L 0.714844 469.5 Z M 0.714844 0 " fill-opacity="1" fill-rule="nonzero"/><path fill="#ffffff" d="M 0.714844 0 L 899.285156 0 L 899.285156 469.5 L 0.714844 469.5 Z M 0.714844 0 " fill-opacity="1" fill-rule="nonzero"/></g><g clip-path="url(#42688f8e6d)"><path fill="#ffffff" d="M 373.03125 320.339844 C 373.03125 320.339844 354.035156 298.253906 350.46875 292.792969 C 346.90625 287.332031 336.226562 277.121094 330.757812 271.660156 C 325.296875 266.199219 328.386719 265.015625 324.109375 265.25 C 319.835938 265.484375 319.601562 266.910156 316.746094 266.199219 C 313.890625 265.492188 308.203125 256.699219 302.269531 249.570312 C 296.332031 242.441406 288.734375 240.308594 284.460938 233.65625 C 280.183594 227.011719 270.449219 206.34375 266.40625 199.699219 C 262.367188 193.054688 258.566406 196.375 254.292969 192.101562 C 250.019531 187.828125 240.992188 175.003906 236.960938 173.816406 C 232.917969 172.628906 227.457031 179.753906 226.75 180.226562 C 226.039062 180.703125 219.382812 192.8125 215.109375 193.527344 C 210.835938 194.238281 197.535156 216.566406 195.398438 218.703125 C 193.261719 220.839844 181.621094 220.363281 178.296875 220.605469 C 174.976562 220.839844 170.457031 233.664062 165.238281 236.519531 C 160.011719 239.367188 147.226562 256.558594 144.105469 256.707031 C 139.355469 256.917969 132.59375 269.742188 125.820312 274.734375 C 119.050781 279.726562 114.066406 281.855469 109.792969 282.214844 C 105.515625 282.574219 100.882812 289.695312 97.675781 290.40625 C 94.46875 291.117188 87.699219 301.453125 85.5625 302.523438 C 83.425781 303.589844 70.972656 315.332031 68.835938 316.039062 C 66.699219 316.75 60.996094 320.339844 60.996094 320.339844 C 60.996094 320.339844 61.839844 317.148438 67.363281 313.582031 C 72.886719 310.019531 79.828125 301.828125 84.28125 298.980469 C 88.738281 296.132812 91.941406 289.183594 97.996094 286.15625 C 104.050781 283.128906 104.410156 279.382812 110.28125 277.785156 C 116.15625 276.1875 126.132812 270.484375 133.257812 259.4375 C 140.378906 248.390625 142.695312 254.453125 146.261719 250.359375 C 149.824219 246.261719 158.726562 236.824219 164.25 232.726562 C 169.773438 228.632812 169.773438 219.550781 176.894531 217.234375 C 184.015625 214.917969 189.898438 217.59375 194.523438 212.960938 C 199.15625 208.328125 203.605469 196.398438 211.445312 191.054688 C 219.285156 185.710938 226.9375 170.039062 235.304688 170.039062 C 245.105469 170.039062 252.226562 188.207031 258.636719 190.875 C 265.050781 193.542969 270.394531 197.46875 278.054688 213.5 C 285.714844 229.53125 287.492188 233.984375 296.753906 238.789062 C 306.011719 243.59375 314.03125 261.871094 319.015625 262.175781 C 324 262.480469 325.960938 260.164062 331.304688 267.464844 C 336.644531 274.765625 347.332031 284.027344 353.027344 292.574219 C 358.722656 301.125 370.410156 310.347656 373.03125 320.339844 Z M 373.03125 320.339844 " fill-opacity="1" fill-rule="nonzero"/></g><path fill="#ffffff" d="M 99.734375 312.367188 C 97.011719 313.660156 112.621094 299.441406 116.085938 295.09375 C 119.550781 290.75 128.03125 286.171875 130.472656 282.246094 C 132.914062 278.324219 140.339844 279.875 144.832031 280.09375 C 149.324219 280.3125 156.914062 278.542969 161.902344 278.792969 C 166.894531 279.035156 166.941406 272.855469 172.058594 270.492188 C 177.175781 268.128906 184.296875 260.632812 182.324219 260.054688 C 180.347656 259.484375 174.296875 265.609375 171.246094 266.644531 C 168.195312 267.683594 165.136719 268.730469 161.714844 272.363281 C 158.28125 276 148.640625 274.898438 145.089844 274.726562 C 139.847656 274.46875 148.695312 272.675781 157.664062 268.128906 C 166.644531 263.574219 166.636719 258.578125 173.257812 256.050781 C 179.882812 253.523438 187.511719 240.816406 191.902344 237.9375 C 196.292969 235.058594 202.730469 231.332031 205.515625 225.527344 C 208.300781 219.714844 209.476562 210.980469 215.046875 209.589844 C 220.617188 208.203125 230.875 202.992188 228.691406 201.695312 C 226.507812 200.402344 219.121094 203.132812 216.894531 202.546875 C 214.671875 201.960938 229.394531 195.550781 229.566406 190.566406 C 229.738281 185.578125 232.28125 194.980469 233.441406 196.695312 C 234.613281 198.421875 239.191406 201.96875 230.460938 206.53125 C 221.734375 211.097656 235.71875 211.539062 238.277344 215.472656 C 240.835938 219.402344 253.269531 225.949219 250.765625 226.066406 C 248.261719 226.183594 238.769531 220.722656 232.21875 221.832031 C 225.65625 222.9375 233.386719 218.320312 231.1875 217.257812 C 228.988281 216.199219 224.679688 212.1875 219.421875 217.398438 C 214.167969 222.609375 212.667969 232.757812 207.433594 237.503906 C 202.199219 242.238281 198.757812 251.207031 202.050781 250.367188 C 205.34375 249.523438 220.304688 235.035156 225.140625 233.375 C 229.976562 231.707031 238.402344 233.3125 245.546875 235.558594 C 252.695312 237.8125 237.988281 236.621094 239.667969 238.125 C 241.34375 239.632812 231.773438 241.066406 232.449219 242.527344 C 233.128906 243.984375 244.808594 245.605469 248.714844 252.644531 C 252.625 259.679688 258.472656 262.816406 264.035156 261.660156 C 269.597656 260.507812 271.6875 258.570312 266.4375 253.507812 C 261.179688 248.445312 256.492188 242.035156 260.417969 243.65625 C 264.339844 245.273438 272.0625 256.074219 276.066406 256.167969 C 280.058594 256.261719 280.261719 257.222656 285.683594 264.140625 C 291.097656 271.0625 304.375 275.757812 306.996094 278.496094 C 309.617188 281.242188 314.171875 280.03125 310.605469 281.289062 C 307.042969 282.542969 305.910156 280.109375 299.867188 281 C 293.820312 281.894531 291.636719 275.367188 287.179688 274.4375 C 282.726562 273.511719 274.253906 267.628906 269.410156 269.53125 C 264.566406 271.433594 249.121094 270.203125 236.804688 276.5 C 224.496094 282.792969 238.089844 270.617188 242.117188 270.101562 C 246.140625 269.585938 240.351562 265.257812 236.859375 265.09375 C 233.363281 264.921875 233.246094 262.300781 228.128906 259.4375 C 223.011719 256.574219 225.507812 251.699219 213.339844 260.140625 C 201.167969 268.582031 195.546875 265.929688 190.609375 269.726562 C 185.667969 273.527344 177.480469 282.402344 171.636719 284.253906 C 165.792969 286.101562 158.1875 293.339844 152.890625 294.277344 C 147.59375 295.203125 156.777344 291.617188 157.671875 288.566406 C 158.570312 285.515625 150.207031 287.722656 146.734375 287.082031 C 143.265625 286.445312 134.699219 287.683594 131.578125 290.148438 C 128.464844 292.605469 107.417969 308.699219 99.734375 312.367188 Z M 99.734375 312.367188 " fill-opacity="1" fill-rule="nonzero"/><path fill="#ffffff" d="M 350.71875 309.847656 C 350.71875 309.847656 332.910156 293.816406 327.207031 293.464844 C 321.503906 293.105469 317.230469 297.738281 310.824219 296.671875 C 304.414062 295.601562 297.292969 282.425781 290.167969 282.066406 C 283.046875 281.710938 268.445312 283.136719 264.167969 282.066406 C 259.894531 281 267.734375 287.050781 273.078125 286.34375 C 278.421875 285.632812 286.253906 284.914062 289.109375 287.410156 C 291.957031 289.90625 298.726562 294.183594 301.222656 297.390625 C 303.71875 300.59375 287.6875 291.921875 277 295.898438 C 266.3125 299.878906 252.421875 301.664062 246.367188 305.222656 C 240.3125 308.785156 254.917969 295.601562 254.917969 289.90625 C 254.917969 289.90625 249.214844 294.410156 241.023438 295.898438 C 232.832031 297.390625 231.148438 310.5625 221.304688 309.855469 C 211.460938 309.144531 199.703125 312.703125 194.71875 314.839844 C 189.734375 316.976562 209.265625 313.175781 216.777344 315.789062 C 224.285156 318.402344 231.882812 310.804688 236.398438 311.039062 C 240.914062 311.273438 239.722656 318.070312 244.472656 316.335938 C 249.222656 314.605469 255.394531 306.53125 261.570312 307.242188 C 267.75 307.949219 277.484375 301.070312 282.46875 303.441406 C 287.453125 305.8125 300.519531 307.242188 305.738281 311.992188 C 310.957031 316.742188 310.964844 310.804688 303.367188 306.53125 C 295.769531 302.257812 308.351562 305.578125 313.34375 305.34375 C 318.332031 305.113281 319.992188 299.644531 324.984375 301.78125 C 329.96875 303.917969 333.058594 307.949219 339.46875 309.378906 C 345.882812 310.804688 353.246094 318.164062 358.707031 317.929688 C 364.167969 317.695312 353.722656 301.421875 350.15625 299.941406 C 346.59375 298.457031 361.289062 316.257812 350.71875 309.847656 Z M 350.71875 309.847656 " fill-opacity="1" fill-rule="nonzero"/><path fill="#ffffff" d="M 220.8125 288.363281 C 214.890625 292.148438 207.988281 299.761719 198.019531 296.554688 C 188.042969 293.347656 181.988281 308.308594 173.085938 308.667969 C 164.1875 309.027344 153.851562 316.148438 148.867188 315.082031 C 143.878906 314.011719 159.910156 309.738281 164.179688 304.753906 C 168.453125 299.769531 168.34375 304.105469 175.222656 304.042969 C 182.097656 303.980469 187.691406 291.578125 193.035156 291.21875 C 198.378906 290.859375 204.789062 294.425781 209.0625 290.507812 C 213.332031 286.578125 232.636719 280.804688 220.8125 288.363281 Z M 220.8125 288.363281 " fill-opacity="1" fill-rule="nonzero"/><path fill="#ffffff" d="M 256.328125 222.570312 C 256.328125 222.570312 265.589844 229.695312 268.679688 235.152344 C 271.765625 240.613281 277.460938 241.191406 281.503906 245.179688 C 285.542969 249.164062 288.390625 249.296875 291.480469 250.769531 C 294.570312 252.246094 285.777344 243.226562 283.171875 238.953125 C 280.558594 234.679688 271.058594 223.039062 267.734375 212.828125 C 264.410156 202.617188 267.5 222.328125 270.824219 228.265625 C 274.144531 234.203125 265.839844 223.992188 261.5625 220.902344 C 257.289062 217.8125 252.539062 217.8125 248.261719 214.253906 C 243.980469 210.699219 242.078125 213.554688 256.328125 222.570312 Z M 256.328125 222.570312 " fill-opacity="1" fill-rule="nonzero"/><g clip-path="url(#2876b8c4ca)"><path fill="#ffffff" d="M 76.316406 259.882812 C 76.316406 182.304688 139.433594 119.179688 217.019531 119.179688 C 294.609375 119.179688 357.722656 182.296875 357.722656 259.882812 C 357.722656 268.144531 357 276.234375 355.632812 284.113281 C 356.664062 285.398438 357.636719 286.695312 358.535156 287.988281 C 360.335938 278.894531 361.289062 269.5 361.289062 259.882812 C 361.289062 180.335938 296.574219 115.621094 217.027344 115.621094 C 137.484375 115.621094 72.753906 180.335938 72.753906 259.882812 C 72.753906 272.144531 74.296875 284.058594 77.191406 295.429688 C 78.253906 294.535156 79.28125 293.738281 80.289062 293.089844 C 77.699219 282.433594 76.316406 271.320312 76.316406 259.882812 Z M 76.316406 259.882812 " fill-opacity="1" fill-rule="nonzero"/></g><g fill="#ffffff" fill-opacity="1"><g transform="translate(373.054493, 261.673174)"><g><path d="M 20.84375 0.9375 C 17.570312 0.9375 14.597656 0.34375 11.921875 -0.84375 C 9.242188 -2.03125 6.992188 -3.609375 5.171875 -5.578125 C 3.347656 -7.554688 2.046875 -9.75 1.265625 -12.15625 L 10.328125 -16.171875 C 10.765625 -15.046875 11.359375 -13.890625 12.109375 -12.703125 C 12.859375 -11.523438 13.894531 -10.53125 15.21875 -9.71875 C 16.539062 -8.90625 18.226562 -8.5 20.28125 -8.5 C 22.0625 -8.5 23.503906 -8.785156 24.609375 -9.359375 C 25.710938 -9.941406 26.53125 -10.671875 27.0625 -11.546875 C 27.59375 -12.421875 27.859375 -13.257812 27.859375 -14.0625 C 27.859375 -15.1875 27.4375 -16.082031 26.59375 -16.75 C 25.75 -17.425781 24.625 -17.976562 23.21875 -18.40625 C 21.820312 -18.84375 20.289062 -19.265625 18.625 -19.671875 C 16.957031 -20.078125 15.289062 -20.578125 13.625 -21.171875 C 11.957031 -21.765625 10.421875 -22.539062 9.015625 -23.5 C 7.617188 -24.46875 6.5 -25.722656 5.65625 -27.265625 C 4.8125 -28.804688 4.390625 -30.765625 4.390625 -33.140625 C 4.390625 -35.597656 4.863281 -37.738281 5.8125 -39.5625 C 6.769531 -41.382812 8.054688 -42.894531 9.671875 -44.09375 C 11.296875 -45.289062 13.148438 -46.1875 15.234375 -46.78125 C 17.328125 -47.375 19.492188 -47.671875 21.734375 -47.671875 C 25.753906 -47.671875 29.265625 -46.765625 32.265625 -44.953125 C 35.273438 -43.148438 37.671875 -40.675781 39.453125 -37.53125 L 30.609375 -32.71875 C 30.078125 -33.6875 29.414062 -34.617188 28.625 -35.515625 C 27.832031 -36.421875 26.84375 -37.171875 25.65625 -37.765625 C 24.476562 -38.359375 23.046875 -38.65625 21.359375 -38.65625 C 19.492188 -38.65625 18.019531 -38.253906 16.9375 -37.453125 C 15.863281 -36.660156 15.328125 -35.71875 15.328125 -34.625 C 15.328125 -33.632812 15.753906 -32.828125 16.609375 -32.203125 C 17.472656 -31.578125 18.613281 -31.035156 20.03125 -30.578125 C 21.445312 -30.128906 22.992188 -29.671875 24.671875 -29.203125 C 26.359375 -28.742188 28.039062 -28.171875 29.71875 -27.484375 C 31.40625 -26.796875 32.957031 -25.921875 34.375 -24.859375 C 35.789062 -23.804688 36.925781 -22.453125 37.78125 -20.796875 C 38.644531 -19.148438 39.078125 -17.09375 39.078125 -14.625 C 39.078125 -11.914062 38.546875 -9.585938 37.484375 -7.640625 C 36.421875 -5.691406 35.007812 -4.078125 33.25 -2.796875 C 31.488281 -1.523438 29.53125 -0.585938 27.375 0.015625 C 25.226562 0.628906 23.050781 0.9375 20.84375 0.9375 Z M 20.84375 0.9375 "/></g></g></g><g fill="#ffffff" fill-opacity="1"><g transform="translate(413.627139, 261.673174)"><g><path d="M 22.390625 0.9375 C 18.460938 0.9375 15.242188 -0.00390625 12.734375 -1.890625 C 10.222656 -3.773438 8.367188 -6.445312 7.171875 -9.90625 C 5.972656 -13.363281 5.375 -17.429688 5.375 -22.109375 L 5.375 -46.6875 L 16.921875 -46.6875 L 16.921875 -21.734375 C 16.921875 -19.179688 17.144531 -16.984375 17.59375 -15.140625 C 18.050781 -13.304688 18.882812 -11.890625 20.09375 -10.890625 C 21.3125 -9.890625 23.070312 -9.390625 25.375 -9.390625 C 26.71875 -9.390625 28.023438 -9.609375 29.296875 -10.046875 C 30.578125 -10.484375 31.738281 -11.285156 32.78125 -12.453125 C 33.832031 -13.617188 34.660156 -15.269531 35.265625 -17.40625 C 35.867188 -19.539062 36.171875 -22.289062 36.171875 -25.65625 L 36.171875 -46.6875 L 47.765625 -46.6875 L 47.765625 0 L 36.171875 0 L 36.171875 -5.46875 C 34.492188 -3.289062 32.46875 -1.675781 30.09375 -0.625 C 27.726562 0.414062 25.160156 0.9375 22.390625 0.9375 Z M 22.390625 0.9375 "/></g></g></g><g fill="#ffffff" fill-opacity="1"><g transform="translate(466.258861, 261.673174)"><g><path d="M 6.5 -55.53125 L 6.5 -66.046875 L 18.375 -66.046875 L 18.375 -55.53125 Z M 6.78125 0 L 6.78125 -46.6875 L 18.09375 -46.6875 L 18.09375 0 Z M 6.78125 0 "/></g></g></g><g fill="#ffffff" fill-opacity="1"><g transform="translate(489.2103, 261.673174)"><g><path d="M 20.84375 0.9375 C 17.570312 0.9375 14.597656 0.34375 11.921875 -0.84375 C 9.242188 -2.03125 6.992188 -3.609375 5.171875 -5.578125 C 3.347656 -7.554688 2.046875 -9.75 1.265625 -12.15625 L 10.328125 -16.171875 C 10.765625 -15.046875 11.359375 -13.890625 12.109375 -12.703125 C 12.859375 -11.523438 13.894531 -10.53125 15.21875 -9.71875 C 16.539062 -8.90625 18.226562 -8.5 20.28125 -8.5 C 22.0625 -8.5 23.503906 -8.785156 24.609375 -9.359375 C 25.710938 -9.941406 26.53125 -10.671875 27.0625 -11.546875 C 27.59375 -12.421875 27.859375 -13.257812 27.859375 -14.0625 C 27.859375 -15.1875 27.4375 -16.082031 26.59375 -16.75 C 25.75 -17.425781 24.625 -17.976562 23.21875 -18.40625 C 21.820312 -18.84375 20.289062 -19.265625 18.625 -19.671875 C 16.957031 -20.078125 15.289062 -20.578125 13.625 -21.171875 C 11.957031 -21.765625 10.421875 -22.539062 9.015625 -23.5 C 7.617188 -24.46875 6.5 -25.722656 5.65625 -27.265625 C 4.8125 -28.804688 4.390625 -30.765625 4.390625 -33.140625 C 4.390625 -35.597656 4.863281 -37.738281 5.8125 -39.5625 C 6.769531 -41.382812 8.054688 -42.894531 9.671875 -44.09375 C 11.296875 -45.289062 13.148438 -46.1875 15.234375 -46.78125 C 17.328125 -47.375 19.492188 -47.671875 21.734375 -47.671875 C 25.753906 -47.671875 29.265625 -46.765625 32.265625 -44.953125 C 35.273438 -43.148438 37.671875 -40.675781 39.453125 -37.53125 L 30.609375 -32.71875 C 30.078125 -33.6875 29.414062 -34.617188 28.625 -35.515625 C 27.832031 -36.421875 26.84375 -37.171875 25.65625 -37.765625 C 24.476562 -38.359375 23.046875 -38.65625 21.359375 -38.65625 C 19.492188 -38.65625 18.019531 -38.253906 16.9375 -37.453125 C 15.863281 -36.660156 15.328125 -35.71875 15.328125 -34.625 C 15.328125 -33.632812 15.753906 -32.828125 16.609375 -32.203125 C 17.472656 -31.578125 18.613281 -31.035156 20.03125 -30.578125 C 21.445312 -30.128906 22.992188 -29.671875 24.671875 -29.203125 C 26.359375 -28.742188 28.039062 -28.171875 29.71875 -27.484375 C 31.40625 -26.796875 32.957031 -25.921875 34.375 -24.859375 C 35.789062 -23.804688 36.925781 -22.453125 37.78125 -20.796875 C 38.644531 -19.148438 39.078125 -17.09375 39.078125 -14.625 C 39.078125 -11.914062 38.546875 -9.585938 37.484375 -7.640625 C 36.421875 -5.691406 35.007812 -4.078125 33.25 -2.796875 C 31.488281 -1.523438 29.53125 -0.585938 27.375 0.015625 C 25.226562 0.628906 23.050781 0.9375 20.84375 0.9375 Z M 20.84375 0.9375 "/></g></g></g><g fill="#ffffff" fill-opacity="1"><g transform="translate(529.782946, 261.673174)"><g><path d="M 20.84375 0.9375 C 17.570312 0.9375 14.597656 0.34375 11.921875 -0.84375 C 9.242188 -2.03125 6.992188 -3.609375 5.171875 -5.578125 C 3.347656 -7.554688 2.046875 -9.75 1.265625 -12.15625 L 10.328125 -16.171875 C 10.765625 -15.046875 11.359375 -13.890625 12.109375 -12.703125 C 12.859375 -11.523438 13.894531 -10.53125 15.21875 -9.71875 C 16.539062 -8.90625 18.226562 -8.5 20.28125 -8.5 C 22.0625 -8.5 23.503906 -8.785156 24.609375 -9.359375 C 25.710938 -9.941406 26.53125 -10.671875 27.0625 -11.546875 C 27.59375 -12.421875 27.859375 -13.257812 27.859375 -14.0625 C 27.859375 -15.1875 27.4375 -16.082031 26.59375 -16.75 C 25.75 -17.425781 24.625 -17.976562 23.21875 -18.40625 C 21.820312 -18.84375 20.289062 -19.265625 18.625 -19.671875 C 16.957031 -20.078125 15.289062 -20.578125 13.625 -21.171875 C 11.957031 -21.765625 10.421875 -22.539062 9.015625 -23.5 C 7.617188 -24.46875 6.5 -25.722656 5.65625 -27.265625 C 4.8125 -28.804688 4.390625 -30.765625 4.390625 -33.140625 C 4.390625 -35.597656 4.863281 -37.738281 5.8125 -39.5625 C 6.769531 -41.382812 8.054688 -42.894531 9.671875 -44.09375 C 11.296875 -45.289062 13.148438 -46.1875 15.234375 -46.78125 C 17.328125 -47.375 19.492188 -47.671875 21.734375 -47.671875 C 25.753906 -47.671875 29.265625 -46.765625 32.265625 -44.953125 C 35.273438 -43.148438 37.671875 -40.675781 39.453125 -37.53125 L 30.609375 -32.71875 C 30.078125 -33.6875 29.414062 -34.617188 28.625 -35.515625 C 27.832031 -36.421875 26.84375 -37.171875 25.65625 -37.765625 C 24.476562 -38.359375 23.046875 -38.65625 21.359375 -38.65625 C 19.492188 -38.65625 18.019531 -38.253906 16.9375 -37.453125 C 15.863281 -36.660156 15.328125 -35.71875 15.328125 -34.625 C 15.328125 -33.632812 15.753906 -32.828125 16.609375 -32.203125 C 17.472656 -31.578125 18.613281 -31.035156 20.03125 -30.578125 C 21.445312 -30.128906 22.992188 -29.671875 24.671875 -29.203125 C 26.359375 -28.742188 28.039062 -28.171875 29.71875 -27.484375 C 31.40625 -26.796875 32.957031 -25.921875 34.375 -24.859375 C 35.789062 -23.804688 36.925781 -22.453125 37.78125 -20.796875 C 38.644531 -19.148438 39.078125 -17.09375 39.078125 -14.625 C 39.078125 -11.914062 38.546875 -9.585938 37.484375 -7.640625 C 36.421875 -5.691406 35.007812 -4.078125 33.25 -2.796875 C 31.488281 -1.523438 29.53125 -0.585938 27.375 0.015625 C 25.226562 0.628906 23.050781 0.9375 20.84375 0.9375 Z M 20.84375 0.9375 "/></g></g></g><g fill="#ffffff" fill-opacity="1"><g transform="translate(570.355592, 261.673174)"><g><path d="M 26.21875 0.9375 C 22.195312 0.9375 18.707031 0.285156 15.75 -1.015625 C 12.789062 -2.328125 10.328125 -4.117188 8.359375 -6.390625 C 6.398438 -8.671875 4.945312 -11.253906 4 -14.140625 C 3.050781 -17.023438 2.578125 -20.039062 2.578125 -23.1875 C 2.578125 -26.238281 3.023438 -29.210938 3.921875 -32.109375 C 4.828125 -35.003906 6.210938 -37.628906 8.078125 -39.984375 C 9.953125 -42.335938 12.328125 -44.207031 15.203125 -45.59375 C 18.085938 -46.976562 21.507812 -47.671875 25.46875 -47.671875 C 28.738281 -47.671875 31.582031 -47.195312 34 -46.25 C 36.414062 -45.300781 38.460938 -44.015625 40.140625 -42.390625 C 41.828125 -40.765625 43.179688 -38.929688 44.203125 -36.890625 C 45.234375 -34.859375 45.972656 -32.742188 46.421875 -30.546875 C 46.878906 -28.347656 47.109375 -26.203125 47.109375 -24.109375 C 47.109375 -23.148438 47.066406 -22.25 46.984375 -21.40625 C 46.910156 -20.5625 46.8125 -19.96875 46.6875 -19.625 L 14.625 -19.625 C 14.96875 -17.601562 15.582031 -15.820312 16.46875 -14.28125 C 17.363281 -12.738281 18.617188 -11.535156 20.234375 -10.671875 C 21.859375 -9.816406 23.882812 -9.390625 26.3125 -9.390625 C 28.425781 -9.390625 30.414062 -9.765625 32.28125 -10.515625 C 34.15625 -11.265625 35.90625 -12.539062 37.53125 -14.34375 L 45.375 -7.484375 C 42.820312 -4.640625 39.972656 -2.523438 36.828125 -1.140625 C 33.679688 0.242188 30.144531 0.9375 26.21875 0.9375 Z M 14.625 -27.859375 L 35.890625 -27.859375 C 35.515625 -31.191406 34.40625 -33.726562 32.5625 -35.46875 C 30.726562 -37.21875 28.332031 -38.09375 25.375 -38.09375 C 23.132812 -38.09375 21.289062 -37.644531 19.84375 -36.75 C 18.394531 -35.863281 17.253906 -34.648438 16.421875 -33.109375 C 15.597656 -31.566406 15 -29.816406 14.625 -27.859375 Z M 14.625 -27.859375 "/></g></g></g><g fill="#ffffff" fill-opacity="1"><g transform="translate(618.313253, 261.673174)"><g><path d="M 9.484375 0 L 9.484375 -37.15625 L 0.9375 -37.15625 L 0.9375 -46.6875 L 9.578125 -46.6875 L 9.578125 -52.953125 C 9.578125 -55.222656 9.984375 -57.226562 10.796875 -58.96875 C 11.609375 -60.71875 12.707031 -62.191406 14.09375 -63.390625 C 15.476562 -64.597656 17.066406 -65.503906 18.859375 -66.109375 C 20.648438 -66.710938 22.523438 -67.015625 24.484375 -67.015625 C 26.046875 -67.015625 27.535156 -66.835938 28.953125 -66.484375 C 30.367188 -66.128906 31.703125 -65.671875 32.953125 -65.109375 L 29.21875 -55.71875 C 28.6875 -56.050781 28.097656 -56.328125 27.453125 -56.546875 C 26.816406 -56.765625 26.1875 -56.875 25.5625 -56.875 C 24.414062 -56.875 23.410156 -56.484375 22.546875 -55.703125 C 21.691406 -54.929688 21.265625 -53.625 21.265625 -51.78125 L 21.265625 -46.6875 L 32.15625 -46.6875 L 32.15625 -37.15625 L 21.265625 -37.15625 L 21.265625 0 Z M 9.484375 0 "/></g></g></g><g fill="#ffffff" fill-opacity="1"><g transform="translate(648.556226, 261.673174)"><g><path d="M 26.3125 0.9375 C 22.695312 0.9375 19.425781 0.289062 16.5 -1 C 13.570312 -2.289062 11.054688 -4.054688 8.953125 -6.296875 C 6.847656 -8.546875 5.226562 -11.144531 4.09375 -14.09375 C 2.957031 -17.039062 2.390625 -20.164062 2.390625 -23.46875 C 2.390625 -26.769531 2.957031 -29.875 4.09375 -32.78125 C 5.226562 -35.695312 6.847656 -38.269531 8.953125 -40.5 C 11.054688 -42.726562 13.570312 -44.476562 16.5 -45.75 C 19.425781 -47.03125 22.695312 -47.671875 26.3125 -47.671875 C 29.925781 -47.671875 33.195312 -47.03125 36.125 -45.75 C 39.050781 -44.476562 41.566406 -42.726562 43.671875 -40.5 C 45.773438 -38.269531 47.394531 -35.695312 48.53125 -32.78125 C 49.675781 -29.875 50.25 -26.769531 50.25 -23.46875 C 50.25 -20.164062 49.675781 -17.039062 48.53125 -14.09375 C 47.394531 -11.144531 45.773438 -8.546875 43.671875 -6.296875 C 41.566406 -4.054688 39.050781 -2.289062 36.125 -1 C 33.195312 0.289062 29.925781 0.9375 26.3125 0.9375 Z M 26.3125 -8.875 C 28.457031 -8.875 30.300781 -9.269531 31.84375 -10.0625 C 33.394531 -10.863281 34.644531 -11.941406 35.59375 -13.296875 C 36.539062 -14.648438 37.238281 -16.207031 37.6875 -17.96875 C 38.144531 -19.726562 38.375 -21.5625 38.375 -23.46875 C 38.375 -25.394531 38.144531 -27.210938 37.6875 -28.921875 C 37.238281 -30.640625 36.539062 -32.164062 35.59375 -33.5 C 34.644531 -34.84375 33.394531 -35.894531 31.84375 -36.65625 C 30.300781 -37.425781 28.457031 -37.8125 26.3125 -37.8125 C 23.445312 -37.8125 21.125 -37.148438 19.34375 -35.828125 C 17.570312 -34.503906 16.28125 -32.75 15.46875 -30.5625 C 14.65625 -28.382812 14.25 -26.019531 14.25 -23.46875 C 14.25 -21.5625 14.472656 -19.726562 14.921875 -17.96875 C 15.378906 -16.207031 16.09375 -14.648438 17.0625 -13.296875 C 18.03125 -11.941406 19.273438 -10.863281 20.796875 -10.0625 C 22.328125 -9.269531 24.164062 -8.875 26.3125 -8.875 Z M 26.3125 -8.875 "/></g></g></g><g fill="#ffffff" fill-opacity="1"><g transform="translate(699.365065, 261.673174)"><g><path d="M 25.28125 0.9375 C 21.476562 0.9375 18.160156 0.269531 15.328125 -1.0625 C 12.492188 -2.40625 10.140625 -4.222656 8.265625 -6.515625 C 6.398438 -8.804688 5 -11.398438 4.0625 -14.296875 C 3.125 -17.191406 2.65625 -20.1875 2.65625 -23.28125 C 2.65625 -26.332031 3.113281 -29.3125 4.03125 -32.21875 C 4.957031 -35.132812 6.347656 -37.753906 8.203125 -40.078125 C 10.054688 -42.398438 12.398438 -44.242188 15.234375 -45.609375 C 18.066406 -46.984375 21.382812 -47.671875 25.1875 -47.671875 C 29.832031 -47.671875 33.914062 -46.53125 37.4375 -44.25 C 40.957031 -41.976562 43.601562 -38.523438 45.375 -33.890625 L 34.546875 -29.671875 C 33.953125 -31.921875 32.828125 -33.757812 31.171875 -35.1875 C 29.523438 -36.625 27.53125 -37.34375 25.1875 -37.34375 C 23.226562 -37.34375 21.554688 -36.941406 20.171875 -36.140625 C 18.785156 -35.347656 17.65625 -34.273438 16.78125 -32.921875 C 15.90625 -31.566406 15.265625 -30.054688 14.859375 -28.390625 C 14.453125 -26.722656 14.25 -25.019531 14.25 -23.28125 C 14.25 -21.5 14.453125 -19.78125 14.859375 -18.125 C 15.265625 -16.476562 15.894531 -14.992188 16.75 -13.671875 C 17.613281 -12.347656 18.738281 -11.300781 20.125 -10.53125 C 21.507812 -9.769531 23.195312 -9.390625 25.1875 -9.390625 C 27.5 -9.390625 29.488281 -10.082031 31.15625 -11.46875 C 32.820312 -12.851562 33.953125 -14.640625 34.546875 -16.828125 L 44.921875 -12.90625 C 43.890625 -10 42.421875 -7.507812 40.515625 -5.4375 C 38.617188 -3.375 36.375 -1.796875 33.78125 -0.703125 C 31.195312 0.390625 28.363281 0.9375 25.28125 0.9375 Z M 25.28125 0.9375 "/></g></g></g><g fill="#ffffff" fill-opacity="1"><g transform="translate(744.378069, 261.673174)"><g><path d="M 22.390625 0.9375 C 18.460938 0.9375 15.242188 -0.00390625 12.734375 -1.890625 C 10.222656 -3.773438 8.367188 -6.445312 7.171875 -9.90625 C 5.972656 -13.363281 5.375 -17.429688 5.375 -22.109375 L 5.375 -46.6875 L 16.921875 -46.6875 L 16.921875 -21.734375 C 16.921875 -19.179688 17.144531 -16.984375 17.59375 -15.140625 C 18.050781 -13.304688 18.882812 -11.890625 20.09375 -10.890625 C 21.3125 -9.890625 23.070312 -9.390625 25.375 -9.390625 C 26.71875 -9.390625 28.023438 -9.609375 29.296875 -10.046875 C 30.578125 -10.484375 31.738281 -11.285156 32.78125 -12.453125 C 33.832031 -13.617188 34.660156 -15.269531 35.265625 -17.40625 C 35.867188 -19.539062 36.171875 -22.289062 36.171875 -25.65625 L 36.171875 -46.6875 L 47.765625 -46.6875 L 47.765625 0 L 36.171875 0 L 36.171875 -5.46875 C 34.492188 -3.289062 32.46875 -1.675781 30.09375 -0.625 C 27.726562 0.414062 25.160156 0.9375 22.390625 0.9375 Z M 22.390625 0.9375 "/></g></g></g><g fill="#ffffff" fill-opacity="1"><g transform="translate(797.009791, 261.673174)"><g><path d="M 20.84375 0.9375 C 17.570312 0.9375 14.597656 0.34375 11.921875 -0.84375 C 9.242188 -2.03125 6.992188 -3.609375 5.171875 -5.578125 C 3.347656 -7.554688 2.046875 -9.75 1.265625 -12.15625 L 10.328125 -16.171875 C 10.765625 -15.046875 11.359375 -13.890625 12.109375 -12.703125 C 12.859375 -11.523438 13.894531 -10.53125 15.21875 -9.71875 C 16.539062 -8.90625 18.226562 -8.5 20.28125 -8.5 C 22.0625 -8.5 23.503906 -8.785156 24.609375 -9.359375 C 25.710938 -9.941406 26.53125 -10.671875 27.0625 -11.546875 C 27.59375 -12.421875 27.859375 -13.257812 27.859375 -14.0625 C 27.859375 -15.1875 27.4375 -16.082031 26.59375 -16.75 C 25.75 -17.425781 24.625 -17.976562 23.21875 -18.40625 C 21.820312 -18.84375 20.289062 -19.265625 18.625 -19.671875 C 16.957031 -20.078125 15.289062 -20.578125 13.625 -21.171875 C 11.957031 -21.765625 10.421875 -22.539062 9.015625 -23.5 C 7.617188 -24.46875 6.5 -25.722656 5.65625 -27.265625 C 4.8125 -28.804688 4.390625 -30.765625 4.390625 -33.140625 C 4.390625 -35.597656 4.863281 -37.738281 5.8125 -39.5625 C 6.769531 -41.382812 8.054688 -42.894531 9.671875 -44.09375 C 11.296875 -45.289062 13.148438 -46.1875 15.234375 -46.78125 C 17.328125 -47.375 19.492188 -47.671875 21.734375 -47.671875 C 25.753906 -47.671875 29.265625 -46.765625 32.265625 -44.953125 C 35.273438 -43.148438 37.671875 -40.675781 39.453125 -37.53125 L 30.609375 -32.71875 C 30.078125 -33.6875 29.414062 -34.617188 28.625 -35.515625 C 27.832031 -36.421875 26.84375 -37.171875 25.65625 -37.765625 C 24.476562 -38.359375 23.046875 -38.65625 21.359375 -38.65625 C 19.492188 -38.65625 18.019531 -38.253906 16.9375 -37.453125 C 15.863281 -36.660156 15.328125 -35.71875 15.328125 -34.625 C 15.328125 -33.632812 15.753906 -32.828125 16.609375 -32.203125 C 17.472656 -31.578125 18.613281 -31.035156 20.03125 -30.578125 C 21.445312 -30.128906 22.992188 -29.671875 24.671875 -29.203125 C 26.359375 -28.742188 28.039062 -28.171875 29.71875 -27.484375 C 31.40625 -26.796875 32.957031 -25.921875 34.375 -24.859375 C 35.789062 -23.804688 36.925781 -22.453125 37.78125 -20.796875 C 38.644531 -19.148438 39.078125 -17.09375 39.078125 -14.625 C 39.078125 -11.914062 38.546875 -9.585938 37.484375 -7.640625 C 36.421875 -5.691406 35.007812 -4.078125 33.25 -2.796875 C 31.488281 -1.523438 29.53125 -0.585938 27.375 0.015625 C 25.226562 0.628906 23.050781 0.9375 20.84375 0.9375 Z M 20.84375 0.9375 "/></g></g></g></svg>