<svg xmlns="http://www.w3.org/2000/svg" xmlns:xlink="http://www.w3.org/1999/xlink" width="400" zoomAndPan="magnify" viewBox="0 0 300 299.999988" height="400" preserveAspectRatio="xMidYMid meet" version="1.0"><defs><g/><linearGradient x1="0" gradientTransform="matrix(0.75, 0, 0, 0.75, 0.000006, 0)" y1="200" x2="399.999983" gradientUnits="userSpaceOnUse" y2="200" id="63024bd4db"><stop stop-opacity="1" stop-color="rgb(80.39856%, 100%, 84.698486%)" offset="0"/><stop stop-opacity="1" stop-color="rgb(80.311584%, 99.891663%, 84.757996%)" offset="0.0078125"/><stop stop-opacity="1" stop-color="rgb(80.136108%, 99.676514%, 84.87854%)" offset="0.015625"/><stop stop-opacity="1" stop-color="rgb(79.960632%, 99.461365%, 84.997559%)" offset="0.0234375"/><stop stop-opacity="1" stop-color="rgb(79.786682%, 99.246216%, 85.116577%)" offset="0.03125"/><stop stop-opacity="1" stop-color="rgb(79.611206%, 99.032593%, 85.237122%)" offset="0.0390625"/><stop stop-opacity="1" stop-color="rgb(79.43573%, 98.817444%, 85.35614%)" offset="0.046875"/><stop stop-opacity="1" stop-color="rgb(79.26178%, 98.602295%, 85.476685%)" offset="0.0546875"/><stop stop-opacity="1" stop-color="rgb(79.086304%, 98.387146%, 85.595703%)" offset="0.0625"/><stop stop-opacity="1" stop-color="rgb(78.910828%, 98.171997%, 85.714722%)" offset="0.0703125"/><stop stop-opacity="1" stop-color="rgb(78.736877%, 97.958374%, 85.835266%)" offset="0.078125"/><stop stop-opacity="1" stop-color="rgb(78.561401%, 97.743225%, 85.954285%)" offset="0.0859375"/><stop stop-opacity="1" stop-color="rgb(78.385925%, 97.528076%, 86.073303%)" offset="0.09375"/><stop stop-opacity="1" stop-color="rgb(78.211975%, 97.312927%, 86.193848%)" offset="0.101562"/><stop stop-opacity="1" stop-color="rgb(78.036499%, 97.097778%, 86.312866%)" offset="0.109375"/><stop stop-opacity="1" stop-color="rgb(77.861023%, 96.884155%, 86.431885%)" offset="0.117188"/><stop stop-opacity="1" stop-color="rgb(77.685547%, 96.669006%, 86.552429%)" offset="0.125"/><stop stop-opacity="1" stop-color="rgb(77.511597%, 96.453857%, 86.671448%)" offset="0.132812"/><stop stop-opacity="1" stop-color="rgb(77.336121%, 96.238708%, 86.790466%)" offset="0.140625"/><stop stop-opacity="1" stop-color="rgb(77.160645%, 96.02356%, 86.911011%)" offset="0.148438"/><stop stop-opacity="1" stop-color="rgb(76.986694%, 95.809937%, 87.030029%)" offset="0.15625"/><stop stop-opacity="1" stop-color="rgb(76.811218%, 95.594788%, 87.149048%)" offset="0.164062"/><stop stop-opacity="1" stop-color="rgb(76.635742%, 95.379639%, 87.269592%)" offset="0.171875"/><stop stop-opacity="1" stop-color="rgb(76.461792%, 95.16449%, 87.388611%)" offset="0.179688"/><stop stop-opacity="1" stop-color="rgb(76.286316%, 94.949341%, 87.507629%)" offset="0.1875"/><stop stop-opacity="1" stop-color="rgb(76.11084%, 94.735718%, 87.628174%)" offset="0.195312"/><stop stop-opacity="1" stop-color="rgb(75.93689%, 94.520569%, 87.747192%)" offset="0.203125"/><stop stop-opacity="1" stop-color="rgb(75.761414%, 94.30542%, 87.866211%)" offset="0.210938"/><stop stop-opacity="1" stop-color="rgb(75.585938%, 94.090271%, 87.986755%)" offset="0.21875"/><stop stop-opacity="1" stop-color="rgb(75.410461%, 93.875122%, 88.105774%)" offset="0.226562"/><stop stop-opacity="1" stop-color="rgb(75.236511%, 93.661499%, 88.224792%)" offset="0.234375"/><stop stop-opacity="1" stop-color="rgb(75.061035%, 93.44635%, 88.345337%)" offset="0.242188"/><stop stop-opacity="1" stop-color="rgb(74.885559%, 93.231201%, 88.464355%)" offset="0.25"/><stop stop-opacity="1" stop-color="rgb(74.711609%, 93.016052%, 88.583374%)" offset="0.257812"/><stop stop-opacity="1" stop-color="rgb(74.536133%, 92.800903%, 88.703918%)" offset="0.265625"/><stop stop-opacity="1" stop-color="rgb(74.360657%, 92.58728%, 88.822937%)" offset="0.273438"/><stop stop-opacity="1" stop-color="rgb(74.186707%, 92.372131%, 88.941956%)" offset="0.28125"/><stop stop-opacity="1" stop-color="rgb(74.01123%, 92.156982%, 89.0625%)" offset="0.289062"/><stop stop-opacity="1" stop-color="rgb(73.835754%, 91.941833%, 89.181519%)" offset="0.296875"/><stop stop-opacity="1" stop-color="rgb(73.661804%, 91.726685%, 89.300537%)" offset="0.304688"/><stop stop-opacity="1" stop-color="rgb(73.486328%, 91.513062%, 89.421082%)" offset="0.3125"/><stop stop-opacity="1" stop-color="rgb(73.310852%, 91.297913%, 89.5401%)" offset="0.320312"/><stop stop-opacity="1" stop-color="rgb(73.136902%, 91.082764%, 89.659119%)" offset="0.328125"/><stop stop-opacity="1" stop-color="rgb(72.961426%, 90.867615%, 89.779663%)" offset="0.335938"/><stop stop-opacity="1" stop-color="rgb(72.78595%, 90.652466%, 89.898682%)" offset="0.34375"/><stop stop-opacity="1" stop-color="rgb(72.610474%, 90.438843%, 90.0177%)" offset="0.351562"/><stop stop-opacity="1" stop-color="rgb(72.436523%, 90.223694%, 90.138245%)" offset="0.359375"/><stop stop-opacity="1" stop-color="rgb(72.261047%, 90.008545%, 90.257263%)" offset="0.367188"/><stop stop-opacity="1" stop-color="rgb(72.085571%, 89.793396%, 90.376282%)" offset="0.375"/><stop stop-opacity="1" stop-color="rgb(71.911621%, 89.578247%, 90.496826%)" offset="0.382812"/><stop stop-opacity="1" stop-color="rgb(71.736145%, 89.364624%, 90.615845%)" offset="0.390625"/><stop stop-opacity="1" stop-color="rgb(71.560669%, 89.149475%, 90.734863%)" offset="0.398438"/><stop stop-opacity="1" stop-color="rgb(71.386719%, 88.934326%, 90.855408%)" offset="0.40625"/><stop stop-opacity="1" stop-color="rgb(71.211243%, 88.719177%, 90.974426%)" offset="0.414062"/><stop stop-opacity="1" stop-color="rgb(71.035767%, 88.504028%, 91.093445%)" offset="0.421875"/><stop stop-opacity="1" stop-color="rgb(70.861816%, 88.290405%, 91.213989%)" offset="0.429688"/><stop stop-opacity="1" stop-color="rgb(70.68634%, 88.075256%, 91.333008%)" offset="0.4375"/><stop stop-opacity="1" stop-color="rgb(70.510864%, 87.860107%, 91.452026%)" offset="0.445312"/><stop stop-opacity="1" stop-color="rgb(70.336914%, 87.644958%, 91.572571%)" offset="0.453125"/><stop stop-opacity="1" stop-color="rgb(70.161438%, 87.42981%, 91.691589%)" offset="0.460938"/><stop stop-opacity="1" stop-color="rgb(69.985962%, 87.216187%, 91.810608%)" offset="0.46875"/><stop stop-opacity="1" stop-color="rgb(69.810486%, 87.001038%, 91.931152%)" offset="0.476562"/><stop stop-opacity="1" stop-color="rgb(69.636536%, 86.785889%, 92.050171%)" offset="0.484375"/><stop stop-opacity="1" stop-color="rgb(69.46106%, 86.57074%, 92.169189%)" offset="0.492188"/><stop stop-opacity="1" stop-color="rgb(69.285583%, 86.355591%, 92.289734%)" offset="0.5"/><stop stop-opacity="1" stop-color="rgb(69.111633%, 86.141968%, 92.408752%)" offset="0.507812"/><stop stop-opacity="1" stop-color="rgb(68.936157%, 85.926819%, 92.527771%)" offset="0.515625"/><stop stop-opacity="1" stop-color="rgb(68.760681%, 85.71167%, 92.648315%)" offset="0.523438"/><stop stop-opacity="1" stop-color="rgb(68.586731%, 85.496521%, 92.767334%)" offset="0.53125"/><stop stop-opacity="1" stop-color="rgb(68.411255%, 85.281372%, 92.886353%)" offset="0.539062"/><stop stop-opacity="1" stop-color="rgb(68.235779%, 85.067749%, 93.006897%)" offset="0.546875"/><stop stop-opacity="1" stop-color="rgb(68.061829%, 84.8526%, 93.125916%)" offset="0.554688"/><stop stop-opacity="1" stop-color="rgb(67.886353%, 84.637451%, 93.244934%)" offset="0.5625"/><stop stop-opacity="1" stop-color="rgb(67.710876%, 84.422302%, 93.365479%)" offset="0.570312"/><stop stop-opacity="1" stop-color="rgb(67.536926%, 84.207153%, 93.484497%)" offset="0.578125"/><stop stop-opacity="1" stop-color="rgb(67.36145%, 83.99353%, 93.603516%)" offset="0.585938"/><stop stop-opacity="1" stop-color="rgb(67.185974%, 83.778381%, 93.72406%)" offset="0.59375"/><stop stop-opacity="1" stop-color="rgb(67.010498%, 83.563232%, 93.843079%)" offset="0.601562"/><stop stop-opacity="1" stop-color="rgb(66.836548%, 83.348083%, 93.962097%)" offset="0.609375"/><stop stop-opacity="1" stop-color="rgb(66.661072%, 83.132935%, 94.082642%)" offset="0.617188"/><stop stop-opacity="1" stop-color="rgb(66.485596%, 82.919312%, 94.20166%)" offset="0.625"/><stop stop-opacity="1" stop-color="rgb(66.311646%, 82.704163%, 94.320679%)" offset="0.632812"/><stop stop-opacity="1" stop-color="rgb(66.136169%, 82.489014%, 94.441223%)" offset="0.640625"/><stop stop-opacity="1" stop-color="rgb(65.960693%, 82.273865%, 94.560242%)" offset="0.648438"/><stop stop-opacity="1" stop-color="rgb(65.786743%, 82.058716%, 94.67926%)" offset="0.65625"/><stop stop-opacity="1" stop-color="rgb(65.611267%, 81.845093%, 94.799805%)" offset="0.664062"/><stop stop-opacity="1" stop-color="rgb(65.435791%, 81.629944%, 94.918823%)" offset="0.671875"/><stop stop-opacity="1" stop-color="rgb(65.261841%, 81.414795%, 95.037842%)" offset="0.679688"/><stop stop-opacity="1" stop-color="rgb(65.086365%, 81.199646%, 95.158386%)" offset="0.6875"/><stop stop-opacity="1" stop-color="rgb(64.910889%, 80.984497%, 95.277405%)" offset="0.695312"/><stop stop-opacity="1" stop-color="rgb(64.736938%, 80.770874%, 95.396423%)" offset="0.703125"/><stop stop-opacity="1" stop-color="rgb(64.561462%, 80.555725%, 95.516968%)" offset="0.710938"/><stop stop-opacity="1" stop-color="rgb(64.385986%, 80.340576%, 95.635986%)" offset="0.71875"/><stop stop-opacity="1" stop-color="rgb(64.21051%, 80.125427%, 95.755005%)" offset="0.726562"/><stop stop-opacity="1" stop-color="rgb(64.03656%, 79.910278%, 95.875549%)" offset="0.734375"/><stop stop-opacity="1" stop-color="rgb(63.861084%, 79.696655%, 95.994568%)" offset="0.742188"/><stop stop-opacity="1" stop-color="rgb(63.685608%, 79.481506%, 96.113586%)" offset="0.75"/><stop stop-opacity="1" stop-color="rgb(63.511658%, 79.266357%, 96.234131%)" offset="0.757812"/><stop stop-opacity="1" stop-color="rgb(63.336182%, 79.051208%, 96.353149%)" offset="0.765625"/><stop stop-opacity="1" stop-color="rgb(63.160706%, 78.83606%, 96.472168%)" offset="0.773438"/><stop stop-opacity="1" stop-color="rgb(62.986755%, 78.622437%, 96.592712%)" offset="0.78125"/><stop stop-opacity="1" stop-color="rgb(62.811279%, 78.407288%, 96.711731%)" offset="0.789062"/><stop stop-opacity="1" stop-color="rgb(62.635803%, 78.192139%, 96.83075%)" offset="0.796875"/><stop stop-opacity="1" stop-color="rgb(62.461853%, 77.97699%, 96.951294%)" offset="0.804688"/><stop stop-opacity="1" stop-color="rgb(62.286377%, 77.761841%, 97.070312%)" offset="0.8125"/><stop stop-opacity="1" stop-color="rgb(62.110901%, 77.548218%, 97.189331%)" offset="0.820312"/><stop stop-opacity="1" stop-color="rgb(61.936951%, 77.333069%, 97.309875%)" offset="0.828125"/><stop stop-opacity="1" stop-color="rgb(61.761475%, 77.11792%, 97.428894%)" offset="0.835938"/><stop stop-opacity="1" stop-color="rgb(61.585999%, 76.902771%, 97.547913%)" offset="0.84375"/><stop stop-opacity="1" stop-color="rgb(61.410522%, 76.687622%, 97.668457%)" offset="0.851562"/><stop stop-opacity="1" stop-color="rgb(61.236572%, 76.473999%, 97.787476%)" offset="0.859375"/><stop stop-opacity="1" stop-color="rgb(61.061096%, 76.25885%, 97.906494%)" offset="0.867188"/><stop stop-opacity="1" stop-color="rgb(60.88562%, 76.043701%, 98.027039%)" offset="0.875"/><stop stop-opacity="1" stop-color="rgb(60.71167%, 75.828552%, 98.146057%)" offset="0.882812"/><stop stop-opacity="1" stop-color="rgb(60.536194%, 75.613403%, 98.265076%)" offset="0.890625"/><stop stop-opacity="1" stop-color="rgb(60.360718%, 75.39978%, 98.38562%)" offset="0.898438"/><stop stop-opacity="1" stop-color="rgb(60.186768%, 75.184631%, 98.504639%)" offset="0.90625"/><stop stop-opacity="1" stop-color="rgb(60.011292%, 74.969482%, 98.623657%)" offset="0.914062"/><stop stop-opacity="1" stop-color="rgb(59.835815%, 74.754333%, 98.744202%)" offset="0.921875"/><stop stop-opacity="1" stop-color="rgb(59.661865%, 74.539185%, 98.86322%)" offset="0.929688"/><stop stop-opacity="1" stop-color="rgb(59.486389%, 74.325562%, 98.982239%)" offset="0.9375"/><stop stop-opacity="1" stop-color="rgb(59.310913%, 74.110413%, 99.102783%)" offset="0.945312"/><stop stop-opacity="1" stop-color="rgb(59.136963%, 73.895264%, 99.221802%)" offset="0.953125"/><stop stop-opacity="1" stop-color="rgb(58.961487%, 73.680115%, 99.34082%)" offset="0.960938"/><stop stop-opacity="1" stop-color="rgb(58.786011%, 73.464966%, 99.461365%)" offset="0.96875"/><stop stop-opacity="1" stop-color="rgb(58.610535%, 73.251343%, 99.580383%)" offset="0.976562"/><stop stop-opacity="1" stop-color="rgb(58.436584%, 73.036194%, 99.699402%)" offset="0.984375"/><stop stop-opacity="1" stop-color="rgb(58.261108%, 72.821045%, 99.819946%)" offset="0.992188"/><stop stop-opacity="1" stop-color="rgb(58.085632%, 72.605896%, 99.938965%)" offset="1"/></linearGradient><clipPath id="4ec9ca74ed"><path d="M 86.066406 88 L 213.566406 88 L 213.566406 150.121094 L 86.066406 150.121094 Z M 86.066406 88 " clip-rule="nonzero"/></clipPath><clipPath id="a94c6fb491"><path d="M 90 66.121094 L 209 66.121094 L 209 140 L 90 140 Z M 90 66.121094 " clip-rule="nonzero"/></clipPath></defs><rect x="-30" width="360" fill="#ffffff" y="-29.999999" height="359.999986" fill-opacity="1"/><rect x="-30" fill="url(#63024bd4db)" width="360" y="-29.999999" height="359.999986"/><g clip-path="url(#4ec9ca74ed)"><path fill="#000000" d="M 213.554688 150.121094 C 213.554688 150.121094 205.796875 141.058594 204.339844 138.820312 C 202.882812 136.578125 198.519531 132.386719 196.285156 130.148438 C 194.054688 127.90625 195.316406 127.421875 193.570312 127.515625 C 191.824219 127.613281 191.726562 128.199219 190.5625 127.90625 C 189.394531 127.617188 187.070312 124.007812 184.648438 121.082031 C 182.222656 118.15625 179.117188 117.285156 177.371094 114.554688 C 175.625 111.824219 171.648438 103.347656 169.996094 100.621094 C 168.347656 97.894531 166.792969 99.257812 165.046875 97.503906 C 163.300781 95.75 159.613281 90.484375 157.964844 90 C 156.316406 89.511719 154.085938 92.433594 153.796875 92.628906 C 153.503906 92.824219 150.785156 97.792969 149.039062 98.089844 C 147.292969 98.378906 141.859375 107.539062 140.988281 108.417969 C 140.113281 109.292969 135.359375 109.097656 134 109.199219 C 132.644531 109.292969 130.796875 114.554688 128.667969 115.726562 C 126.53125 116.894531 121.308594 123.949219 120.035156 124.011719 C 118.09375 124.097656 115.328125 129.359375 112.5625 131.410156 C 109.796875 133.457031 107.761719 134.332031 106.015625 134.476562 C 104.269531 134.625 102.375 137.546875 101.066406 137.839844 C 99.753906 138.128906 96.988281 142.371094 96.117188 142.808594 C 95.242188 143.25 90.15625 148.066406 89.285156 148.355469 C 88.410156 148.648438 86.082031 150.121094 86.082031 150.121094 C 86.082031 150.121094 86.425781 148.8125 88.679688 147.347656 C 90.9375 145.886719 93.773438 142.523438 95.59375 141.355469 C 97.414062 140.1875 98.722656 137.335938 101.195312 136.09375 C 103.667969 134.851562 103.816406 133.316406 106.214844 132.660156 C 108.613281 132.003906 112.691406 129.664062 115.601562 125.132812 C 118.511719 120.597656 119.457031 123.085938 120.914062 121.40625 C 122.371094 119.726562 126.003906 115.851562 128.261719 114.171875 C 130.519531 112.492188 130.519531 108.765625 133.429688 107.816406 C 136.335938 106.863281 138.742188 107.960938 140.628906 106.0625 C 142.523438 104.160156 144.339844 99.265625 147.542969 97.074219 C 150.746094 94.878906 153.871094 88.449219 157.289062 88.449219 C 161.292969 88.449219 164.203125 95.90625 166.824219 97 C 169.441406 98.09375 171.625 99.703125 174.753906 106.28125 C 177.882812 112.859375 178.609375 114.6875 182.394531 116.660156 C 186.175781 118.632812 189.453125 126.128906 191.488281 126.253906 C 193.527344 126.378906 194.324219 125.429688 196.507812 128.425781 C 198.691406 131.421875 203.058594 135.222656 205.382812 138.730469 C 207.710938 142.238281 212.484375 146.019531 213.554688 150.121094 Z M 213.554688 150.121094 " fill-opacity="1" fill-rule="nonzero"/></g><path fill="#000000" d="M 101.90625 146.851562 C 100.792969 147.382812 107.171875 141.546875 108.585938 139.761719 C 110 137.980469 113.464844 136.101562 114.460938 134.492188 C 115.460938 132.882812 118.496094 133.519531 120.328125 133.609375 C 122.164062 133.699219 125.265625 132.972656 127.300781 133.074219 C 129.34375 133.171875 129.363281 130.636719 131.453125 129.667969 C 133.542969 128.699219 136.453125 125.621094 135.644531 125.386719 C 134.839844 125.152344 132.367188 127.664062 131.121094 128.089844 C 129.875 128.515625 128.625 128.945312 127.226562 130.4375 C 125.824219 131.925781 121.886719 131.476562 120.433594 131.40625 C 118.292969 131.300781 121.90625 130.5625 125.570312 128.699219 C 129.242188 126.828125 129.238281 124.78125 131.941406 123.742188 C 134.648438 122.707031 137.765625 117.492188 139.558594 116.308594 C 141.355469 115.128906 143.984375 113.597656 145.121094 111.21875 C 146.257812 108.832031 146.738281 105.25 149.015625 104.679688 C 151.289062 104.109375 155.480469 101.96875 154.589844 101.4375 C 153.695312 100.90625 150.679688 102.027344 149.769531 101.789062 C 148.863281 101.546875 154.875 98.917969 154.945312 96.871094 C 155.015625 94.828125 156.054688 98.683594 156.53125 99.386719 C 157.007812 100.09375 158.878906 101.550781 155.3125 103.421875 C 151.746094 105.296875 157.460938 105.480469 158.503906 107.09375 C 159.550781 108.707031 164.628906 111.390625 163.605469 111.4375 C 162.585938 111.488281 158.707031 109.246094 156.027344 109.699219 C 153.347656 110.15625 156.507812 108.261719 155.609375 107.824219 C 154.710938 107.390625 152.949219 105.746094 150.800781 107.882812 C 148.65625 110.019531 148.042969 114.183594 145.90625 116.132812 C 143.765625 118.074219 142.359375 121.753906 143.707031 121.410156 C 145.050781 121.0625 151.164062 115.121094 153.136719 114.4375 C 155.113281 113.753906 158.554688 114.414062 161.476562 115.335938 C 164.394531 116.257812 158.386719 115.769531 159.074219 116.386719 C 159.757812 117.003906 155.847656 117.59375 156.125 118.191406 C 156.402344 118.792969 161.171875 119.457031 162.769531 122.34375 C 164.367188 125.230469 166.757812 126.519531 169.027344 126.042969 C 171.300781 125.570312 172.15625 124.777344 170.011719 122.699219 C 167.863281 120.621094 165.945312 117.992188 167.550781 118.65625 C 169.152344 119.320312 172.308594 123.753906 173.941406 123.789062 C 175.574219 123.828125 175.65625 124.222656 177.871094 127.0625 C 180.082031 129.902344 185.507812 131.828125 186.578125 132.953125 C 187.648438 134.078125 189.511719 133.582031 188.054688 134.097656 C 186.597656 134.613281 186.136719 133.613281 183.664062 133.980469 C 181.195312 134.347656 180.304688 131.667969 178.484375 131.289062 C 176.664062 130.90625 173.203125 128.492188 171.222656 129.273438 C 169.246094 130.054688 162.933594 129.550781 157.902344 132.132812 C 152.875 134.714844 158.429688 129.71875 160.074219 129.507812 C 161.71875 129.296875 159.351562 127.519531 157.925781 127.453125 C 156.496094 127.382812 156.449219 126.308594 154.359375 125.132812 C 152.269531 123.957031 153.289062 121.957031 148.316406 125.421875 C 143.34375 128.882812 141.046875 127.796875 139.03125 129.355469 C 137.011719 130.914062 133.667969 134.554688 131.28125 135.3125 C 128.894531 136.074219 125.785156 139.042969 123.621094 139.425781 C 121.457031 139.808594 125.207031 138.335938 125.574219 137.082031 C 125.941406 135.832031 122.527344 136.738281 121.105469 136.476562 C 119.6875 136.214844 116.191406 136.722656 114.914062 137.734375 C 113.644531 138.742188 105.046875 145.34375 101.90625 146.851562 Z M 101.90625 146.851562 " fill-opacity="1" fill-rule="nonzero"/><path fill="#000000" d="M 204.441406 145.816406 C 204.441406 145.816406 197.164062 139.238281 194.835938 139.09375 C 192.503906 138.945312 190.757812 140.847656 188.144531 140.410156 C 185.523438 139.972656 182.613281 134.566406 179.703125 134.417969 C 176.792969 134.269531 170.828125 134.855469 169.082031 134.417969 C 167.335938 133.980469 170.539062 136.464844 172.722656 136.171875 C 174.90625 135.878906 178.105469 135.585938 179.269531 136.609375 C 180.433594 137.632812 183.199219 139.386719 184.21875 140.703125 C 185.238281 142.019531 178.691406 138.460938 174.324219 140.09375 C 169.957031 141.726562 164.28125 142.457031 161.808594 143.917969 C 159.335938 145.378906 165.304688 139.972656 165.304688 137.632812 C 165.304688 137.632812 162.972656 139.480469 159.628906 140.09375 C 156.28125 140.703125 155.59375 146.109375 151.570312 145.820312 C 147.546875 145.527344 142.746094 146.988281 140.710938 147.863281 C 138.671875 148.742188 146.652344 147.183594 149.722656 148.253906 C 152.789062 149.328125 155.890625 146.210938 157.738281 146.304688 C 159.582031 146.402344 159.09375 149.191406 161.035156 148.480469 C 162.976562 147.769531 165.496094 144.457031 168.019531 144.746094 C 170.546875 145.039062 174.523438 142.214844 176.558594 143.1875 C 178.59375 144.160156 183.933594 144.746094 186.066406 146.695312 C 188.195312 148.644531 188.199219 146.210938 185.097656 144.457031 C 181.992188 142.703125 187.132812 144.066406 189.171875 143.96875 C 191.207031 143.871094 191.886719 141.628906 193.925781 142.507812 C 195.964844 143.382812 197.226562 145.039062 199.84375 145.625 C 202.464844 146.210938 205.472656 149.226562 207.703125 149.132812 C 209.933594 149.035156 205.667969 142.359375 204.210938 141.75 C 202.753906 141.140625 208.757812 148.445312 204.441406 145.816406 Z M 204.441406 145.816406 " fill-opacity="1" fill-rule="nonzero"/><path fill="#000000" d="M 151.371094 137 C 148.949219 138.554688 146.128906 141.675781 142.058594 140.363281 C 137.980469 139.046875 135.507812 145.183594 131.871094 145.332031 C 128.238281 145.480469 124.015625 148.402344 121.976562 147.964844 C 119.941406 147.523438 126.488281 145.769531 128.234375 143.726562 C 129.980469 141.679688 129.933594 143.460938 132.746094 143.433594 C 135.554688 143.410156 137.839844 138.320312 140.019531 138.171875 C 142.203125 138.023438 144.824219 139.488281 146.570312 137.882812 C 148.3125 136.269531 156.199219 133.898438 151.371094 137 Z M 151.371094 137 " fill-opacity="1" fill-rule="nonzero"/><path fill="#000000" d="M 165.878906 110.003906 C 165.878906 110.003906 169.664062 112.925781 170.925781 115.167969 C 172.1875 117.410156 174.511719 117.644531 176.164062 119.28125 C 177.8125 120.917969 178.976562 120.972656 180.238281 121.574219 C 181.5 122.179688 177.910156 118.480469 176.84375 116.726562 C 175.777344 114.972656 171.894531 110.195312 170.539062 106.007812 C 169.179688 101.816406 170.441406 109.90625 171.800781 112.339844 C 173.160156 114.777344 169.765625 110.585938 168.019531 109.320312 C 166.273438 108.050781 164.332031 108.050781 162.585938 106.59375 C 160.835938 105.132812 160.058594 106.304688 165.878906 110.003906 Z M 165.878906 110.003906 " fill-opacity="1" fill-rule="nonzero"/><g clip-path="url(#a94c6fb491)"><path fill="#000000" d="M 92.339844 125.3125 C 92.339844 93.480469 118.125 67.582031 149.820312 67.582031 C 181.515625 67.582031 207.300781 93.480469 207.300781 125.3125 C 207.300781 128.703125 207.007812 132.023438 206.449219 135.257812 C 206.867188 135.785156 207.265625 136.316406 207.632812 136.847656 C 208.371094 133.113281 208.757812 129.261719 208.757812 125.3125 C 208.757812 92.675781 182.320312 66.121094 149.824219 66.121094 C 117.328125 66.121094 90.882812 92.675781 90.882812 125.3125 C 90.882812 130.347656 91.515625 135.234375 92.695312 139.902344 C 93.128906 139.53125 93.550781 139.207031 93.960938 138.941406 C 92.902344 134.566406 92.339844 130.007812 92.339844 125.3125 Z M 92.339844 125.3125 " fill-opacity="1" fill-rule="nonzero"/></g><g fill="#191919" fill-opacity="1"><g transform="translate(30.22858, 190.634774)"><g><path d="M 10.1875 0.453125 C 8.59375 0.453125 7.140625 0.164062 5.828125 -0.40625 C 4.515625 -0.988281 3.410156 -1.765625 2.515625 -2.734375 C 1.628906 -3.703125 0.992188 -4.769531 0.609375 -5.9375 L 5.046875 -7.90625 C 5.265625 -7.351562 5.554688 -6.785156 5.921875 -6.203125 C 6.285156 -5.628906 6.789062 -5.144531 7.4375 -4.75 C 8.082031 -4.351562 8.90625 -4.15625 9.90625 -4.15625 C 10.78125 -4.15625 11.488281 -4.296875 12.03125 -4.578125 C 12.570312 -4.859375 12.96875 -5.210938 13.21875 -5.640625 C 13.476562 -6.066406 13.609375 -6.476562 13.609375 -6.875 C 13.609375 -7.425781 13.398438 -7.863281 12.984375 -8.1875 C 12.578125 -8.519531 12.03125 -8.789062 11.34375 -9 C 10.664062 -9.207031 9.914062 -9.410156 9.09375 -9.609375 C 8.28125 -9.804688 7.46875 -10.050781 6.65625 -10.34375 C 5.84375 -10.632812 5.09375 -11.015625 4.40625 -11.484375 C 3.71875 -11.960938 3.164062 -12.578125 2.75 -13.328125 C 2.34375 -14.078125 2.140625 -15.03125 2.140625 -16.1875 C 2.140625 -17.394531 2.375 -18.441406 2.84375 -19.328125 C 3.3125 -20.222656 3.941406 -20.960938 4.734375 -21.546875 C 5.523438 -22.140625 6.429688 -22.578125 7.453125 -22.859375 C 8.472656 -23.148438 9.53125 -23.296875 10.625 -23.296875 C 12.582031 -23.296875 14.296875 -22.851562 15.765625 -21.96875 C 17.242188 -21.09375 18.414062 -19.882812 19.28125 -18.34375 L 14.96875 -15.984375 C 14.707031 -16.460938 14.378906 -16.921875 13.984375 -17.359375 C 13.597656 -17.796875 13.113281 -18.160156 12.53125 -18.453125 C 11.957031 -18.742188 11.257812 -18.890625 10.4375 -18.890625 C 9.519531 -18.890625 8.800781 -18.691406 8.28125 -18.296875 C 7.757812 -17.910156 7.5 -17.453125 7.5 -16.921875 C 7.5 -16.429688 7.707031 -16.035156 8.125 -15.734375 C 8.539062 -15.429688 9.09375 -15.171875 9.78125 -14.953125 C 10.476562 -14.734375 11.238281 -14.507812 12.0625 -14.28125 C 12.882812 -14.050781 13.707031 -13.765625 14.53125 -13.421875 C 15.351562 -13.085938 16.109375 -12.660156 16.796875 -12.140625 C 17.492188 -11.628906 18.050781 -10.96875 18.46875 -10.15625 C 18.882812 -9.351562 19.09375 -8.351562 19.09375 -7.15625 C 19.09375 -5.820312 18.832031 -4.679688 18.3125 -3.734375 C 17.800781 -2.785156 17.113281 -2 16.25 -1.375 C 15.394531 -0.75 14.441406 -0.289062 13.390625 0 C 12.335938 0.300781 11.269531 0.453125 10.1875 0.453125 Z M 10.1875 0.453125 "/></g></g></g><g fill="#191919" fill-opacity="1"><g transform="translate(50.053616, 190.634774)"><g><path d="M 10.9375 0.453125 C 9.019531 0.453125 7.445312 -0.00390625 6.21875 -0.921875 C 5 -1.847656 4.09375 -3.15625 3.5 -4.84375 C 2.914062 -6.53125 2.625 -8.515625 2.625 -10.796875 L 2.625 -22.8125 L 8.265625 -22.8125 L 8.265625 -10.625 C 8.265625 -9.375 8.375 -8.296875 8.59375 -7.390625 C 8.820312 -6.492188 9.234375 -5.800781 9.828125 -5.3125 C 10.421875 -4.832031 11.28125 -4.59375 12.40625 -4.59375 C 13.0625 -4.59375 13.703125 -4.695312 14.328125 -4.90625 C 14.953125 -5.125 15.519531 -5.515625 16.03125 -6.078125 C 16.539062 -6.648438 16.941406 -7.457031 17.234375 -8.5 C 17.535156 -9.550781 17.6875 -10.898438 17.6875 -12.546875 L 17.6875 -22.8125 L 23.34375 -22.8125 L 23.34375 0 L 17.6875 0 L 17.6875 -2.671875 C 16.863281 -1.609375 15.867188 -0.820312 14.703125 -0.3125 C 13.546875 0.195312 12.289062 0.453125 10.9375 0.453125 Z M 10.9375 0.453125 "/></g></g></g><g fill="#191919" fill-opacity="1"><g transform="translate(75.771085, 190.634774)"><g><path d="M 3.171875 -27.140625 L 3.171875 -32.28125 L 8.984375 -32.28125 L 8.984375 -27.140625 Z M 3.3125 0 L 3.3125 -22.8125 L 8.84375 -22.8125 L 8.84375 0 Z M 3.3125 0 "/></g></g></g><g fill="#191919" fill-opacity="1"><g transform="translate(86.98586, 190.634774)"><g><path d="M 10.1875 0.453125 C 8.59375 0.453125 7.140625 0.164062 5.828125 -0.40625 C 4.515625 -0.988281 3.410156 -1.765625 2.515625 -2.734375 C 1.628906 -3.703125 0.992188 -4.769531 0.609375 -5.9375 L 5.046875 -7.90625 C 5.265625 -7.351562 5.554688 -6.785156 5.921875 -6.203125 C 6.285156 -5.628906 6.789062 -5.144531 7.4375 -4.75 C 8.082031 -4.351562 8.90625 -4.15625 9.90625 -4.15625 C 10.78125 -4.15625 11.488281 -4.296875 12.03125 -4.578125 C 12.570312 -4.859375 12.96875 -5.210938 13.21875 -5.640625 C 13.476562 -6.066406 13.609375 -6.476562 13.609375 -6.875 C 13.609375 -7.425781 13.398438 -7.863281 12.984375 -8.1875 C 12.578125 -8.519531 12.03125 -8.789062 11.34375 -9 C 10.664062 -9.207031 9.914062 -9.410156 9.09375 -9.609375 C 8.28125 -9.804688 7.46875 -10.050781 6.65625 -10.34375 C 5.84375 -10.632812 5.09375 -11.015625 4.40625 -11.484375 C 3.71875 -11.960938 3.164062 -12.578125 2.75 -13.328125 C 2.34375 -14.078125 2.140625 -15.03125 2.140625 -16.1875 C 2.140625 -17.394531 2.375 -18.441406 2.84375 -19.328125 C 3.3125 -20.222656 3.941406 -20.960938 4.734375 -21.546875 C 5.523438 -22.140625 6.429688 -22.578125 7.453125 -22.859375 C 8.472656 -23.148438 9.53125 -23.296875 10.625 -23.296875 C 12.582031 -23.296875 14.296875 -22.851562 15.765625 -21.96875 C 17.242188 -21.09375 18.414062 -19.882812 19.28125 -18.34375 L 14.96875 -15.984375 C 14.707031 -16.460938 14.378906 -16.921875 13.984375 -17.359375 C 13.597656 -17.796875 13.113281 -18.160156 12.53125 -18.453125 C 11.957031 -18.742188 11.257812 -18.890625 10.4375 -18.890625 C 9.519531 -18.890625 8.800781 -18.691406 8.28125 -18.296875 C 7.757812 -17.910156 7.5 -17.453125 7.5 -16.921875 C 7.5 -16.429688 7.707031 -16.035156 8.125 -15.734375 C 8.539062 -15.429688 9.09375 -15.171875 9.78125 -14.953125 C 10.476562 -14.734375 11.238281 -14.507812 12.0625 -14.28125 C 12.882812 -14.050781 13.707031 -13.765625 14.53125 -13.421875 C 15.351562 -13.085938 16.109375 -12.660156 16.796875 -12.140625 C 17.492188 -11.628906 18.050781 -10.96875 18.46875 -10.15625 C 18.882812 -9.351562 19.09375 -8.351562 19.09375 -7.15625 C 19.09375 -5.820312 18.832031 -4.679688 18.3125 -3.734375 C 17.800781 -2.785156 17.113281 -2 16.25 -1.375 C 15.394531 -0.75 14.441406 -0.289062 13.390625 0 C 12.335938 0.300781 11.269531 0.453125 10.1875 0.453125 Z M 10.1875 0.453125 "/></g></g></g><g fill="#191919" fill-opacity="1"><g transform="translate(106.810896, 190.634774)"><g><path d="M 10.1875 0.453125 C 8.59375 0.453125 7.140625 0.164062 5.828125 -0.40625 C 4.515625 -0.988281 3.410156 -1.765625 2.515625 -2.734375 C 1.628906 -3.703125 0.992188 -4.769531 0.609375 -5.9375 L 5.046875 -7.90625 C 5.265625 -7.351562 5.554688 -6.785156 5.921875 -6.203125 C 6.285156 -5.628906 6.789062 -5.144531 7.4375 -4.75 C 8.082031 -4.351562 8.90625 -4.15625 9.90625 -4.15625 C 10.78125 -4.15625 11.488281 -4.296875 12.03125 -4.578125 C 12.570312 -4.859375 12.96875 -5.210938 13.21875 -5.640625 C 13.476562 -6.066406 13.609375 -6.476562 13.609375 -6.875 C 13.609375 -7.425781 13.398438 -7.863281 12.984375 -8.1875 C 12.578125 -8.519531 12.03125 -8.789062 11.34375 -9 C 10.664062 -9.207031 9.914062 -9.410156 9.09375 -9.609375 C 8.28125 -9.804688 7.46875 -10.050781 6.65625 -10.34375 C 5.84375 -10.632812 5.09375 -11.015625 4.40625 -11.484375 C 3.71875 -11.960938 3.164062 -12.578125 2.75 -13.328125 C 2.34375 -14.078125 2.140625 -15.03125 2.140625 -16.1875 C 2.140625 -17.394531 2.375 -18.441406 2.84375 -19.328125 C 3.3125 -20.222656 3.941406 -20.960938 4.734375 -21.546875 C 5.523438 -22.140625 6.429688 -22.578125 7.453125 -22.859375 C 8.472656 -23.148438 9.53125 -23.296875 10.625 -23.296875 C 12.582031 -23.296875 14.296875 -22.851562 15.765625 -21.96875 C 17.242188 -21.09375 18.414062 -19.882812 19.28125 -18.34375 L 14.96875 -15.984375 C 14.707031 -16.460938 14.378906 -16.921875 13.984375 -17.359375 C 13.597656 -17.796875 13.113281 -18.160156 12.53125 -18.453125 C 11.957031 -18.742188 11.257812 -18.890625 10.4375 -18.890625 C 9.519531 -18.890625 8.800781 -18.691406 8.28125 -18.296875 C 7.757812 -17.910156 7.5 -17.453125 7.5 -16.921875 C 7.5 -16.429688 7.707031 -16.035156 8.125 -15.734375 C 8.539062 -15.429688 9.09375 -15.171875 9.78125 -14.953125 C 10.476562 -14.734375 11.238281 -14.507812 12.0625 -14.28125 C 12.882812 -14.050781 13.707031 -13.765625 14.53125 -13.421875 C 15.351562 -13.085938 16.109375 -12.660156 16.796875 -12.140625 C 17.492188 -11.628906 18.050781 -10.96875 18.46875 -10.15625 C 18.882812 -9.351562 19.09375 -8.351562 19.09375 -7.15625 C 19.09375 -5.820312 18.832031 -4.679688 18.3125 -3.734375 C 17.800781 -2.785156 17.113281 -2 16.25 -1.375 C 15.394531 -0.75 14.441406 -0.289062 13.390625 0 C 12.335938 0.300781 11.269531 0.453125 10.1875 0.453125 Z M 10.1875 0.453125 "/></g></g></g><g fill="#191919" fill-opacity="1"><g transform="translate(126.635932, 190.634774)"><g><path d="M 12.8125 0.453125 C 10.851562 0.453125 9.148438 0.132812 7.703125 -0.5 C 6.253906 -1.144531 5.050781 -2.019531 4.09375 -3.125 C 3.132812 -4.238281 2.421875 -5.5 1.953125 -6.90625 C 1.484375 -8.3125 1.25 -9.785156 1.25 -11.328125 C 1.25 -12.816406 1.46875 -14.269531 1.90625 -15.6875 C 2.351562 -17.101562 3.035156 -18.382812 3.953125 -19.53125 C 4.867188 -20.6875 6.03125 -21.601562 7.4375 -22.28125 C 8.84375 -22.957031 10.515625 -23.296875 12.453125 -23.296875 C 14.046875 -23.296875 15.429688 -23.0625 16.609375 -22.59375 C 17.796875 -22.132812 18.800781 -21.507812 19.625 -20.71875 C 20.445312 -19.925781 21.109375 -19.03125 21.609375 -18.03125 C 22.109375 -17.03125 22.46875 -15.992188 22.6875 -14.921875 C 22.914062 -13.847656 23.03125 -12.800781 23.03125 -11.78125 C 23.03125 -11.3125 23.007812 -10.867188 22.96875 -10.453125 C 22.925781 -10.046875 22.875 -9.757812 22.8125 -9.59375 L 7.15625 -9.59375 C 7.320312 -8.601562 7.617188 -7.726562 8.046875 -6.96875 C 8.484375 -6.21875 9.097656 -5.632812 9.890625 -5.21875 C 10.679688 -4.800781 11.671875 -4.59375 12.859375 -4.59375 C 13.890625 -4.59375 14.863281 -4.773438 15.78125 -5.140625 C 16.695312 -5.503906 17.550781 -6.128906 18.34375 -7.015625 L 22.1875 -3.65625 C 20.9375 -2.269531 19.539062 -1.238281 18 -0.5625 C 16.457031 0.113281 14.726562 0.453125 12.8125 0.453125 Z M 7.15625 -13.609375 L 17.546875 -13.609375 C 17.359375 -15.242188 16.816406 -16.484375 15.921875 -17.328125 C 15.023438 -18.179688 13.851562 -18.609375 12.40625 -18.609375 C 11.3125 -18.609375 10.410156 -18.390625 9.703125 -17.953125 C 8.992188 -17.523438 8.4375 -16.929688 8.03125 -16.171875 C 7.625 -15.421875 7.332031 -14.566406 7.15625 -13.609375 Z M 7.15625 -13.609375 "/></g></g></g><g fill="#191919" fill-opacity="1"><g transform="translate(150.069512, 190.634774)"><g><path d="M 4.640625 0 L 4.640625 -18.15625 L 0.453125 -18.15625 L 0.453125 -22.8125 L 4.6875 -22.8125 L 4.6875 -25.875 C 4.6875 -26.988281 4.882812 -27.972656 5.28125 -28.828125 C 5.675781 -29.679688 6.210938 -30.398438 6.890625 -30.984375 C 7.566406 -31.566406 8.34375 -32.003906 9.21875 -32.296875 C 10.09375 -32.597656 11.007812 -32.75 11.96875 -32.75 C 12.726562 -32.75 13.453125 -32.660156 14.140625 -32.484375 C 14.835938 -32.316406 15.492188 -32.09375 16.109375 -31.8125 L 14.28125 -27.234375 C 14.019531 -27.398438 13.734375 -27.535156 13.421875 -27.640625 C 13.109375 -27.742188 12.800781 -27.796875 12.5 -27.796875 C 11.9375 -27.796875 11.441406 -27.601562 11.015625 -27.21875 C 10.597656 -26.84375 10.390625 -26.207031 10.390625 -25.3125 L 10.390625 -22.8125 L 15.71875 -22.8125 L 15.71875 -18.15625 L 10.390625 -18.15625 L 10.390625 0 Z M 4.640625 0 "/></g></g></g><g fill="#191919" fill-opacity="1"><g transform="translate(164.847154, 190.634774)"><g><path d="M 12.859375 0.453125 C 11.085938 0.453125 9.488281 0.140625 8.0625 -0.484375 C 6.632812 -1.117188 5.40625 -1.984375 4.375 -3.078125 C 3.34375 -4.179688 2.550781 -5.453125 2 -6.890625 C 1.445312 -8.328125 1.171875 -9.851562 1.171875 -11.46875 C 1.171875 -13.082031 1.445312 -14.597656 2 -16.015625 C 2.550781 -17.441406 3.34375 -18.695312 4.375 -19.78125 C 5.40625 -20.875 6.632812 -21.734375 8.0625 -22.359375 C 9.488281 -22.984375 11.085938 -23.296875 12.859375 -23.296875 C 14.628906 -23.296875 16.226562 -22.984375 17.65625 -22.359375 C 19.082031 -21.734375 20.3125 -20.875 21.34375 -19.78125 C 22.375 -18.695312 23.164062 -17.441406 23.71875 -16.015625 C 24.28125 -14.597656 24.5625 -13.082031 24.5625 -11.46875 C 24.5625 -9.851562 24.28125 -8.328125 23.71875 -6.890625 C 23.164062 -5.453125 22.375 -4.179688 21.34375 -3.078125 C 20.3125 -1.984375 19.082031 -1.117188 17.65625 -0.484375 C 16.226562 0.140625 14.628906 0.453125 12.859375 0.453125 Z M 12.859375 -4.34375 C 13.910156 -4.34375 14.8125 -4.535156 15.5625 -4.921875 C 16.320312 -5.304688 16.929688 -5.832031 17.390625 -6.5 C 17.859375 -7.164062 18.203125 -7.925781 18.421875 -8.78125 C 18.640625 -9.644531 18.75 -10.539062 18.75 -11.46875 C 18.75 -12.414062 18.640625 -13.304688 18.421875 -14.140625 C 18.203125 -14.972656 17.859375 -15.71875 17.390625 -16.375 C 16.929688 -17.03125 16.320312 -17.546875 15.5625 -17.921875 C 14.8125 -18.296875 13.910156 -18.484375 12.859375 -18.484375 C 11.460938 -18.484375 10.328125 -18.15625 9.453125 -17.5 C 8.585938 -16.851562 7.957031 -16 7.5625 -14.9375 C 7.164062 -13.875 6.96875 -12.71875 6.96875 -11.46875 C 6.96875 -10.539062 7.078125 -9.644531 7.296875 -8.78125 C 7.515625 -7.925781 7.859375 -7.164062 8.328125 -6.5 C 8.804688 -5.832031 9.414062 -5.304688 10.15625 -4.921875 C 10.90625 -4.535156 11.804688 -4.34375 12.859375 -4.34375 Z M 12.859375 -4.34375 "/></g></g></g><g fill="#191919" fill-opacity="1"><g transform="translate(189.673907, 190.634774)"><g><path d="M 12.359375 0.453125 C 10.503906 0.453125 8.878906 0.128906 7.484375 -0.515625 C 6.097656 -1.171875 4.945312 -2.054688 4.03125 -3.171875 C 3.125 -4.296875 2.441406 -5.566406 1.984375 -6.984375 C 1.523438 -8.398438 1.296875 -9.863281 1.296875 -11.375 C 1.296875 -12.863281 1.519531 -14.320312 1.96875 -15.75 C 2.425781 -17.175781 3.109375 -18.457031 4.015625 -19.59375 C 4.921875 -20.726562 6.066406 -21.628906 7.453125 -22.296875 C 8.835938 -22.960938 10.457031 -23.296875 12.3125 -23.296875 C 14.582031 -23.296875 16.578125 -22.738281 18.296875 -21.625 C 20.015625 -20.519531 21.3125 -18.832031 22.1875 -16.5625 L 16.875 -14.5 C 16.59375 -15.601562 16.046875 -16.503906 15.234375 -17.203125 C 14.429688 -17.898438 13.457031 -18.25 12.3125 -18.25 C 11.351562 -18.25 10.535156 -18.054688 9.859375 -17.671875 C 9.179688 -17.285156 8.628906 -16.757812 8.203125 -16.09375 C 7.773438 -15.425781 7.460938 -14.6875 7.265625 -13.875 C 7.066406 -13.0625 6.96875 -12.226562 6.96875 -11.375 C 6.96875 -10.507812 7.066406 -9.671875 7.265625 -8.859375 C 7.460938 -8.054688 7.769531 -7.328125 8.1875 -6.671875 C 8.601562 -6.023438 9.148438 -5.515625 9.828125 -5.140625 C 10.503906 -4.773438 11.332031 -4.59375 12.3125 -4.59375 C 13.4375 -4.59375 14.40625 -4.929688 15.21875 -5.609375 C 16.039062 -6.285156 16.59375 -7.15625 16.875 -8.21875 L 21.953125 -6.296875 C 21.453125 -4.890625 20.734375 -3.675781 19.796875 -2.65625 C 18.867188 -1.644531 17.773438 -0.875 16.515625 -0.34375 C 15.253906 0.1875 13.867188 0.453125 12.359375 0.453125 Z M 12.359375 0.453125 "/></g></g></g><g fill="#191919" fill-opacity="1"><g transform="translate(211.668637, 190.634774)"><g><path d="M 10.9375 0.453125 C 9.019531 0.453125 7.445312 -0.00390625 6.21875 -0.921875 C 5 -1.847656 4.09375 -3.15625 3.5 -4.84375 C 2.914062 -6.53125 2.625 -8.515625 2.625 -10.796875 L 2.625 -22.8125 L 8.265625 -22.8125 L 8.265625 -10.625 C 8.265625 -9.375 8.375 -8.296875 8.59375 -7.390625 C 8.820312 -6.492188 9.234375 -5.800781 9.828125 -5.3125 C 10.421875 -4.832031 11.28125 -4.59375 12.40625 -4.59375 C 13.0625 -4.59375 13.703125 -4.695312 14.328125 -4.90625 C 14.953125 -5.125 15.519531 -5.515625 16.03125 -6.078125 C 16.539062 -6.648438 16.941406 -7.457031 17.234375 -8.5 C 17.535156 -9.550781 17.6875 -10.898438 17.6875 -12.546875 L 17.6875 -22.8125 L 23.34375 -22.8125 L 23.34375 0 L 17.6875 0 L 17.6875 -2.671875 C 16.863281 -1.609375 15.867188 -0.820312 14.703125 -0.3125 C 13.546875 0.195312 12.289062 0.453125 10.9375 0.453125 Z M 10.9375 0.453125 "/></g></g></g><g fill="#191919" fill-opacity="1"><g transform="translate(237.386107, 190.634774)"><g><path d="M 10.1875 0.453125 C 8.59375 0.453125 7.140625 0.164062 5.828125 -0.40625 C 4.515625 -0.988281 3.410156 -1.765625 2.515625 -2.734375 C 1.628906 -3.703125 0.992188 -4.769531 0.609375 -5.9375 L 5.046875 -7.90625 C 5.265625 -7.351562 5.554688 -6.785156 5.921875 -6.203125 C 6.285156 -5.628906 6.789062 -5.144531 7.4375 -4.75 C 8.082031 -4.351562 8.90625 -4.15625 9.90625 -4.15625 C 10.78125 -4.15625 11.488281 -4.296875 12.03125 -4.578125 C 12.570312 -4.859375 12.96875 -5.210938 13.21875 -5.640625 C 13.476562 -6.066406 13.609375 -6.476562 13.609375 -6.875 C 13.609375 -7.425781 13.398438 -7.863281 12.984375 -8.1875 C 12.578125 -8.519531 12.03125 -8.789062 11.34375 -9 C 10.664062 -9.207031 9.914062 -9.410156 9.09375 -9.609375 C 8.28125 -9.804688 7.46875 -10.050781 6.65625 -10.34375 C 5.84375 -10.632812 5.09375 -11.015625 4.40625 -11.484375 C 3.71875 -11.960938 3.164062 -12.578125 2.75 -13.328125 C 2.34375 -14.078125 2.140625 -15.03125 2.140625 -16.1875 C 2.140625 -17.394531 2.375 -18.441406 2.84375 -19.328125 C 3.3125 -20.222656 3.941406 -20.960938 4.734375 -21.546875 C 5.523438 -22.140625 6.429688 -22.578125 7.453125 -22.859375 C 8.472656 -23.148438 9.53125 -23.296875 10.625 -23.296875 C 12.582031 -23.296875 14.296875 -22.851562 15.765625 -21.96875 C 17.242188 -21.09375 18.414062 -19.882812 19.28125 -18.34375 L 14.96875 -15.984375 C 14.707031 -16.460938 14.378906 -16.921875 13.984375 -17.359375 C 13.597656 -17.796875 13.113281 -18.160156 12.53125 -18.453125 C 11.957031 -18.742188 11.257812 -18.890625 10.4375 -18.890625 C 9.519531 -18.890625 8.800781 -18.691406 8.28125 -18.296875 C 7.757812 -17.910156 7.5 -17.453125 7.5 -16.921875 C 7.5 -16.429688 7.707031 -16.035156 8.125 -15.734375 C 8.539062 -15.429688 9.09375 -15.171875 9.78125 -14.953125 C 10.476562 -14.734375 11.238281 -14.507812 12.0625 -14.28125 C 12.882812 -14.050781 13.707031 -13.765625 14.53125 -13.421875 C 15.351562 -13.085938 16.109375 -12.660156 16.796875 -12.140625 C 17.492188 -11.628906 18.050781 -10.96875 18.46875 -10.15625 C 18.882812 -9.351562 19.09375 -8.351562 19.09375 -7.15625 C 19.09375 -5.820312 18.832031 -4.679688 18.3125 -3.734375 C 17.800781 -2.785156 17.113281 -2 16.25 -1.375 C 15.394531 -0.75 14.441406 -0.289062 13.390625 0 C 12.335938 0.300781 11.269531 0.453125 10.1875 0.453125 Z M 10.1875 0.453125 "/></g></g></g></svg>