<?xml version="1.0" encoding="UTF-8"?>
<svg version="1.1" xmlns="http://www.w3.org/2000/svg" width="1200" height="627">
<path d="M0 0 C2.83934833 1.03967573 3.88959459 1.82374868 5.51953125 4.42578125 C5.94621094 5.37839844 6.37289062 6.33101563 6.8125 7.3125 C7.47185547 8.72982422 7.47185547 8.72982422 8.14453125 10.17578125 C9.11149881 13.3680988 9.18117624 14.89164147 8 18 C6.15234375 19.73046875 6.15234375 19.73046875 3.9375 21.1875 C2.59509329 22.0816514 1.2737993 23.01055681 0 24 C0 24.66 0 25.32 0 26 C0.845625 26.42410156 1.69125 26.84820312 2.5625 27.28515625 C8.65195627 30.43368193 14.13237198 33.5518884 19.14453125 38.296875 C21.76069008 40.69823342 24.62795143 42.70038898 27.53125 44.73828125 C28.0159375 45.15464844 28.500625 45.57101562 29 46 C29 46.66 29 47.32 29 48 C28.319375 47.81824219 27.63875 47.63648438 26.9375 47.44921875 C18.3558891 45.22393401 9.72090698 43.56046686 1 42 C1 40.02 1 38.04 1 36 C-3.94869104 34.09566419 -3.94869104 34.09566419 -9 35.08203125 C-12.50751571 37.32446643 -13.82358793 39.27402344 -15.875 42.875 C-16.55828396 44.04575377 -17.24188693 45.21632141 -17.92578125 46.38671875 C-18.43939209 47.28463135 -18.43939209 47.28463135 -18.96337891 48.20068359 C-20.6114599 51.06134231 -22.33659426 53.87330554 -24.0625 56.6875 C-24.71605469 57.75355469 -25.36960937 58.81960938 -26.04296875 59.91796875 C-28.40914303 63.64433902 -30.93798615 67.22740445 -33.5546875 70.78125 C-35.0710758 73.10911095 -36.05478816 75.39378482 -37 78 C-32.66182666 76.54327021 -29.40457157 74.2036562 -25.875 71.375 C-24.73138755 70.47669365 -23.58683922 69.57957759 -22.44140625 68.68359375 C-21.86922363 68.23483887 -21.29704102 67.78608398 -20.70751953 67.32373047 C-9.67381908 58.77000959 -2.95753393 56.05025453 11 57 C21.73466834 58.73466834 21.73466834 58.73466834 25 62 C23.93072266 62.25523437 23.93072266 62.25523437 22.83984375 62.515625 C16.94253201 64.00781155 12.11630088 65.70282832 7 69 C9.35651076 71.35651076 11.52274897 72.19985299 14.5625 73.5625 C22.04200292 77.22593 27.18088596 82.29487869 32.1875 88.875 C35.41496087 92.65891964 38.66942455 93.88328285 43.5625 94.3125 C46.80562416 94.01767053 49.08886509 93.41145935 52 92 C51.52447644 87.34487458 49.75249928 85.21301525 46.5625 81.875 C40 74.94382022 40 74.94382022 40 71 C44.24187148 71.50782968 46.37048428 73.93843245 49.375 76.8125 C54.19266553 81.40624587 58.78326431 85.41893308 65.1875 87.5 C69.60581703 89.36073418 72.34703757 92.25624758 75.4375 95.8125 C84.71922443 106.44069666 96.72214603 112.3673901 109 119 C109 119.99 109 120.98 109 122 C99.1268867 122.30070396 91.29447503 122.38349656 82.9375 116.75 C78.41379368 113.71510842 73.93511686 111.51010957 68.875 109.5625 C68.23038818 109.3037207 67.58577637 109.04494141 66.92163086 108.77832031 C57.85251489 105.43205407 48.76598216 107.23717628 39.4375 108.6875 C38.2937793 108.86321533 37.15005859 109.03893066 35.97167969 109.2199707 C28.09334842 110.4980037 20.6917897 112.29754577 13.171875 114.94921875 C10.10769642 115.96432225 7.19250616 116.55982112 4 117 C5.49389293 113.16341134 7.63623019 111.53814574 11 109.25 C11.886875 108.63640625 12.77375 108.0228125 13.6875 107.390625 C16 106 16 106 18 106 C15.49048975 102.92014651 12.91081816 101.39004144 9.375 99.75 C4.35194891 97.38664705 0.51825892 94.29258067 -3.578125 90.57421875 C-6.78842072 88.48752653 -8.2124517 88.38543387 -12 89 C-15.05705544 90.35450957 -17.88482146 92.03239376 -20.75 93.75 C-27.7994153 97.82059928 -34.64979112 101.54159697 -42.55078125 103.6953125 C-50.56347355 106.08404566 -55.62244761 110.6213333 -61.71875 116.09375 C-68.17141692 121.88347169 -75.22861849 125.71471906 -82.99609375 129.484375 C-86.73529712 131.37099517 -90.28598234 133.49730905 -93.84375 135.703125 C-99.3253012 139 -99.3253012 139 -103 139 C-101.44499019 135.18315774 -98.96404505 132.80804268 -96 130 C-100.00164164 129.93293338 -103.99811078 129.95682967 -108 130 C-109.83884766 129.98839844 -109.83884766 129.98839844 -111.71484375 129.9765625 C-121.27107753 130.1935255 -127.35462949 132.42270852 -135 138 C-135.70672852 138.51353027 -136.41345703 139.02706055 -137.14160156 139.55615234 C-140.38456931 141.92497007 -143.61589382 144.30875923 -146.83496094 146.70996094 C-151.8079669 150.4163142 -156.81399954 154.03414395 -162 157.4375 C-163.093125 158.15808594 -164.18625 158.87867188 -165.3125 159.62109375 C-166.199375 160.07613281 -167.08625 160.53117188 -168 161 C-168.99 160.67 -169.98 160.34 -171 160 C-149.76217254 136.61925662 -149.76217254 136.61925662 -137.4375 127 C-134.88188137 124.96977682 -134.88188137 124.96977682 -132.3125 122.3125 C-128.89853795 118.89853795 -127.04174012 118.85570855 -122.3203125 118.71875 C-121.16273438 118.68136719 -120.00515625 118.64398438 -118.8125 118.60546875 C-116.9871875 118.55326172 -116.9871875 118.55326172 -115.125 118.5 C-108.22355279 118.29612793 -101.32169362 118.07868372 -94.4296875 117.65625 C-93.0372583 117.57600586 -93.0372583 117.57600586 -91.61669922 117.49414062 C-86.05486075 116.44383637 -82.83162652 112.92032158 -79 109 C-76.27327514 106.74731782 -73.50059143 104.56296434 -70.71875 102.37890625 C-67.74873057 99.78013924 -65.45024967 97.08500638 -63 94 C-66.04359371 95.74666408 -69.08451469 97.49793148 -72.125 99.25 C-72.9809375 99.74113281 -73.836875 100.23226562 -74.71875 100.73828125 C-79.82012341 103.6813813 -84.77324116 106.75525567 -89.61083984 110.12060547 C-94.34068808 113.16669766 -98.19648353 113.55914802 -103.75 113.375 C-104.88115234 113.37306641 -104.88115234 113.37306641 -106.03515625 113.37109375 C-109.85390138 113.31004809 -111.7590789 113.16061407 -115 111 C-114.12432373 110.65388672 -114.12432373 110.65388672 -113.23095703 110.30078125 C-102.35219975 105.953574 -92.7581437 101.93246012 -84 94 C-81.81903838 92.27613449 -79.5953475 90.6101534 -77.375 88.9375 C-70.16059337 83.41452426 -63.61227456 77.87838825 -57.69921875 70.96875 C-53.35700376 65.93776988 -48.90836877 61.86027494 -43.4375 58.0625 C-34.98557266 51.98587557 -31.32827008 45.29395608 -27.70996094 35.72265625 C-24.43377797 27.50632374 -18.27218963 24.33132363 -10.625 20.6875 C-9.88894531 20.32849609 -9.15289062 19.96949219 -8.39453125 19.59960938 C-6.59995998 18.72562986 -4.80047663 17.86174832 -3 17 C-9.435 16.505 -9.435 16.505 -16 16 C-16 15.34 -16 14.68 -16 14 C-14.31562963 12.69026192 -12.57553843 11.45175407 -10.8125 10.25 C-6.442461 7.16394153 -3.13005079 4.31731143 0 0 Z " fill="#0D110F" transform="translate(305,254)"/>
<path d="M0 0 C2.86318617 0.00314529 5.72532072 -0.02032403 8.58837891 -0.0456543 C24.50360049 -0.10127825 39.85693906 1.65157221 55.20166016 6.00317383 C56.11149658 6.25808594 57.02133301 6.51299805 57.95874023 6.77563477 C86.87013304 15.15255758 112.54378268 29.51176798 134.26416016 50.31567383 C136.19813459 52.04878274 138.1355627 53.77804651 140.07666016 55.50317383 C144.50286465 59.53790232 148.49081882 63.67034185 152.26416016 68.31567383 C153.08400391 69.29793945 153.90384766 70.28020508 154.74853516 71.29223633 C187.87460473 111.62298806 201.02624733 162.26628795 196.38916016 213.75317383 C196.31084961 214.63545654 196.23253906 215.51773926 196.15185547 216.42675781 C195.71690121 220.71005739 195.18053806 224.39434593 193.26416016 228.31567383 C192.27416016 227.98567383 191.28416016 227.65567383 190.26416016 227.31567383 C188.80025109 224.3878557 189.411382 222.0475767 189.68603516 218.79614258 C190.35237041 210.07225097 190.50735101 201.3751535 190.51416016 192.62817383 C190.5148349 191.83919708 190.51550964 191.05022034 190.51620483 190.23733521 C190.49970115 178.03864156 189.98825419 166.2526855 187.26416016 154.31567383 C187.08723633 153.52499512 186.9103125 152.73431641 186.72802734 151.91967773 C184.15337011 140.72058579 180.71512298 129.9078715 176.26416016 119.31567383 C175.98233887 118.64358887 175.70051758 117.97150391 175.41015625 117.27905273 C167.97359783 99.88054472 157.92203101 84.34414216 145.26416016 70.31567383 C144.07555482 68.92078161 142.88791177 67.52506826 141.70166016 66.12817383 C140.5643542 64.84970343 139.41810103 63.57914993 138.26416016 62.31567383 C137.58740234 61.57317383 136.91064453 60.83067383 136.21337891 60.06567383 C108.55753656 31.06189967 69.43604637 13.4377757 30.26416016 7.31567383 C29.60472412 7.21254883 28.94528809 7.10942383 28.26586914 7.00317383 C8.61476906 4.39018177 -13.42168517 5.01097215 -32.73583984 9.31567383 C-34.05672607 9.59773682 -34.05672607 9.59773682 -35.40429688 9.88549805 C-62.12634448 15.73429029 -88.49765635 26.84372821 -109.73583984 44.31567383 C-110.57840332 45.00814209 -110.57840332 45.00814209 -111.43798828 45.71459961 C-123.03236333 55.30067456 -133.41325069 65.47087733 -142.73583984 77.31567383 C-143.55052734 78.3134082 -144.36521484 79.31114258 -145.20458984 80.33911133 C-151.75801139 88.46053721 -156.96243011 97.04645383 -161.73583984 106.31567383 C-162.0892041 107.00177734 -162.44256836 107.68788086 -162.80664062 108.39477539 C-171.01105019 124.56128617 -176.5512574 141.46899947 -179.73583984 159.31567383 C-179.9146167 160.30156494 -180.09339355 161.28745605 -180.27758789 162.30322266 C-181.78719173 171.55786746 -182.07610639 180.63000655 -182.05151367 189.99072266 C-182.04836539 192.48295406 -182.07187135 194.97397953 -182.09716797 197.46606445 C-182.13506673 207.63156184 -181.20251709 217.27021055 -179.38110352 227.27001953 C-178.7834227 230.65242934 -178.60635696 233.87293236 -178.73583984 237.31567383 C-180.71583984 238.30567383 -180.71583984 238.30567383 -182.73583984 239.31567383 C-185.62770816 231.12204695 -186.80634389 222.93138632 -187.73583984 214.31567383 C-187.84927734 213.29989258 -187.96271484 212.28411133 -188.07958984 211.23754883 C-192.94111453 159.65137026 -177.42947514 109.45387894 -144.73583984 69.31567383 C-141.84001387 65.87555939 -138.83541342 62.57309606 -135.73583984 59.31567383 C-135.22537109 58.77797363 -134.71490234 58.24027344 -134.18896484 57.6862793 C-106.57370288 28.78864974 -70.79078269 10.30452599 -31.73583984 2.31567383 C-30.83542969 2.12803467 -29.93501953 1.94039551 -29.00732422 1.74707031 C-19.36662113 -0.00557207 -9.76535332 -0.02234824 0 0 Z " fill="#1D2422" transform="translate(284.73583984375,154.684326171875)"/>
<path d="M0 0 C5.95382901 2.83515667 10.43421011 7.26413032 14.5 12.375 C15.28761719 13.34824219 16.07523438 14.32148438 16.88671875 15.32421875 C18.40441145 17.24588141 19.87455012 19.20546098 21.3125 21.1875 C23.99728823 23.9971621 26.55882128 25.77231013 29.8125 27.875 C44.11218621 37.1925217 50.75919135 50.2972014 58.0625 65.25 C63.78842472 76.86769176 68.90841537 85.15814414 80.1171875 92.125 C87.85450194 97.15739963 93.14867145 104.55535768 98.60546875 111.8515625 C99.39566406 112.89054687 100.18585938 113.92953125 101 115 C101.39292236 115.56187012 101.78584473 116.12374023 102.19067383 116.70263672 C104.31170977 119.56618434 105.54217365 120.88862099 109.05078125 121.7421875 C110.12714844 121.78601563 111.20351563 121.82984375 112.3125 121.875 C118.51454842 122.57421628 121.21671079 124.12048523 125.25 128.80078125 C126.11625 129.88939453 126.11625 129.88939453 127 131 C128.12113072 132.27424812 129.24611447 133.54511694 130.375 134.8125 C130.94476563 135.47636719 131.51453125 136.14023437 132.1015625 136.82421875 C134.26745005 139.30652198 136.50876957 141.71055145 138.75 144.125 C142.99729052 148.77648887 146.90231438 153.61051474 150.75073242 158.59399414 C154.06396041 162.86480248 157.51580916 166.98423148 161.0625 171.0625 C180 192.92054107 180 192.92054107 180 199 C176.28436466 197.76145489 175.40541409 196.30982822 173 193.25 C172.20335937 192.25097656 171.40671875 191.25195312 170.5859375 190.22265625 C170.1640918 189.6930127 169.74224609 189.16336914 169.30761719 188.61767578 C167.13386951 185.92849502 164.87488759 183.31296882 162.625 180.6875 C158.80799187 176.21822255 155.15096408 171.6541018 151.5625 167 C144.35203907 157.6927976 136.3566595 149.10905099 127.8359375 140.98828125 C126 139 126 139 124.2265625 136.29296875 C122.31068312 133.40298191 120.71944704 131.16400443 118 129 C114.67615496 128.66204016 114.67615496 128.66204016 111.125 129.0625 C104.75393607 129.54577515 104.75393607 129.54577515 101.15625 126.94140625 C98.57571204 124.07015954 96.26478408 121.12548135 94 118 C92.6534056 116.28569149 91.2996286 114.57699172 89.9375 112.875 C89.29425781 112.0603125 88.65101563 111.245625 87.98828125 110.40625 C82.55056839 103.82544229 76.3971388 98.29484547 69.5546875 93.21484375 C61.91121854 86.58816653 57.5879765 79.00242534 53.125 70 C52.20733527 68.1883969 51.28466197 66.37940228 50.36175537 64.57046509 C49.45911157 62.80049571 48.56009338 61.02867886 47.66113281 59.25683594 C45.49715113 55.01410877 43.28946302 50.80127192 41 46.625 C40.67531738 46.00882812 40.35063477 45.39265625 40.01611328 44.7578125 C36.80605191 38.9721412 32.66862173 35.40071402 26.4375 33.125 C17.90173644 29.10284475 12.37534469 20.46496052 6.60791016 13.26123047 C3.83015189 9.84221161 1.76958065 7.37037735 -2.6875 6.4375 C-10.89190279 7.83070047 -15.67379138 16.00972626 -20.34960938 22.29174805 C-24.29877799 27.54484424 -28.60202204 31.1939915 -33.80078125 35.109375 C-37.7588106 38.4259264 -40.51042126 42.53389253 -43.4375 46.75 C-44.57837845 48.36011854 -45.72029506 49.96950201 -46.86328125 51.578125 C-47.67466553 52.72571289 -47.67466553 52.72571289 -48.50244141 53.89648438 C-50.33193486 56.46624564 -52.20624953 58.99621473 -54.125 61.5 C-54.62257813 62.1496875 -55.12015625 62.799375 -55.6328125 63.46875 C-57.55670813 65.62351311 -59.21277416 66.91843812 -62.12548828 67.22021484 C-62.93228027 67.21715332 -63.73907227 67.2140918 -64.5703125 67.2109375 C-74.91421419 67.16096724 -74.91421419 67.16096724 -83.96484375 71.33984375 C-86.17121085 74.46655764 -88.06476156 77.69982914 -90 81 C-91.75261784 83.09770694 -93.49738118 85.0870003 -95.375 87.0625 C-95.86427979 87.58336182 -96.35355957 88.10422363 -96.85766602 88.64086914 C-98.56025345 90.43864705 -100.27825198 92.22056224 -102 94 C-102.72606445 94.7532959 -103.45212891 95.5065918 -104.20019531 96.28271484 C-112.519745 104.87478378 -120.63400439 113.14938364 -130.4375 120.0390625 C-134.89932094 123.45344377 -138.35003483 127.75797275 -142 132 C-150.04336774 141.1845635 -158.71403449 147.13258095 -170.5625 150.3125 C-177.29313918 152.33420319 -182.67899771 157.57666432 -188 162 C-188.77988281 162.63679687 -189.55976563 163.27359375 -190.36328125 163.9296875 C-193.59068273 166.64947826 -196.43078604 169.43977179 -199.125 172.6875 C-206.53154463 181.35081125 -215.77247052 188.40818693 -225.1875 194.75 C-226.14076172 195.39557861 -226.14076172 195.39557861 -227.11328125 196.05419922 C-231.61790669 199 -231.61790669 199 -235 199 C-234.64053099 196.31282183 -234.191256 195.18333909 -232.20703125 193.28125 C-231.41683594 192.6934375 -230.62664062 192.105625 -229.8125 191.5 C-220.80735629 184.5513501 -212.18752761 177.34924912 -204.27978516 169.16015625 C-192.52125537 156.99595865 -179.7303726 146.84441123 -164.37304688 139.62084961 C-152.65146173 134.09081167 -144.78222527 125.11221055 -137.32421875 114.7265625 C-134.72081301 111.33215148 -133.01611564 109.80202368 -128.8125 108.8125 C-123.06182825 107.04522039 -119.93233044 103.36392769 -116 99 C-114.34137825 97.32532707 -112.67425956 95.65903902 -111 94 C-110.175 93.175 -109.35 92.35 -108.5 91.5 C-101 84 -101 84 -98.40234375 81.53125 C-95.27923165 78.24055627 -93.21572419 74.62071235 -90.94140625 70.71875 C-87.66248874 66.126946 -84.64219696 63.4594142 -79.16015625 61.92578125 C-77.79732194 61.7019151 -76.4311304 61.49766003 -75.0625 61.3125 C-65.10517085 60.34890408 -65.10517085 60.34890408 -57.26171875 54.98046875 C-56.38600335 53.72830099 -55.52866847 52.46313207 -54.6875 51.1875 C-53.73553108 49.82341122 -52.78238275 48.46014485 -51.828125 47.09765625 C-51.35568359 46.41074707 -50.88324219 45.72383789 -50.39648438 45.01611328 C-44.74622819 36.85880286 -38.89300014 29.53653533 -31.31640625 23.05078125 C-27.28718571 19.48359612 -23.86979515 15.3852522 -20.5546875 11.15625 C-15.33089788 4.64792195 -8.8828683 -1.53741951 0 0 Z " fill="#1C2322" transform="translate(317,227)"/>
<path d="M0 0 C1.71294422 -0.03148201 3.42567579 -0.07907092 5.13769531 -0.14355469 C21.16092474 -0.7383305 21.16092474 -0.7383305 27.40283203 4.20629883 C28.83619721 5.60504091 30.23693813 7.03863376 31.59033203 8.51489258 C32.6645691 9.51434293 33.74676502 10.5053801 34.84033203 11.48364258 C35.74783203 12.31895508 36.65533203 13.15426758 37.59033203 14.01489258 C41.37605262 17.18342894 43.89201116 19.1736485 48.90283203 19.26489258 C51.78016675 18.95432312 54.23311322 18.32790169 57.02783203 17.51489258 C62.7521739 15.90805977 68.3782877 15.25375338 74.02783203 17.47192383 C80.54563969 21.19179103 86.36685829 26.1272252 92.19580078 30.83129883 C95.5651242 33.53485737 99.0561331 36.0315228 102.59033203 38.51489258 C101.68986827 35.68486362 100.82558698 32.97233275 99.46533203 30.32739258 C98.59033203 28.51489258 98.59033203 28.51489258 98.59033203 25.51489258 C105.03773245 28.04779989 107.73213061 34.16221903 110.61767578 40.06567383 C111.78304028 43.00014588 112.00183864 45.38744238 111.59033203 48.51489258 C104.43425202 48.51489258 99.43537783 46.1007557 93.3215332 42.66577148 C88.48779214 39.95385128 83.60090731 37.7783017 78.43798828 35.74926758 C75.39002729 34.42806638 72.63337095 32.83379049 69.77783203 31.13989258 C66.20241399 29.13065189 64.86263931 28.51489258 60.65283203 28.51489258 C57.71703172 29.37281533 57.71703172 29.37281533 55.66943359 30.55151367 C53.39214865 31.60672344 51.75825338 31.82198166 49.26220703 31.92895508 C48.06337891 31.98696289 48.06337891 31.98696289 46.84033203 32.04614258 C45.60283203 32.09254883 45.60283203 32.09254883 44.34033203 32.13989258 C43.49986328 32.17856445 42.65939453 32.21723633 41.79345703 32.25708008 C39.72609821 32.35105093 37.65824576 32.43404821 35.59033203 32.51489258 C36.16783203 32.98540039 36.74533203 33.4559082 37.34033203 33.94067383 C38.08283203 34.56329102 38.82533203 35.1859082 39.59033203 35.82739258 C40.33283203 36.44227539 41.07533203 37.0571582 41.84033203 37.69067383 C43.59033203 39.51489258 43.59033203 39.51489258 43.59033203 42.51489258 C39.53418852 41.87995299 36.24528789 40.54835331 32.52783203 38.82739258 C16.25690537 31.01572395 16.25690537 31.01572395 -0.97216797 30.38989258 C-1.78814453 30.7224707 -2.60412109 31.05504883 -3.44482422 31.39770508 C-6.74513434 32.6413002 -9.91603962 33.20910092 -13.37963867 33.81445312 C-22.4278942 35.42537964 -28.99103282 37.90536319 -36.40966797 43.51489258 C-42.36583623 47.32365893 -42.36583623 47.32365893 -46.40966797 46.51489258 C-47.15216797 45.66926758 -47.89466797 44.82364258 -48.65966797 43.95239258 C-51.04298494 41.39424866 -51.04298494 41.39424866 -53.30419922 41.22973633 C-59.17830021 41.66367892 -64.09230939 43.95812467 -69.31982422 46.55395508 C-72.53982335 47.55537074 -74.64003347 47.40406139 -77.92700195 46.85668945 C-83.53875708 46.08410049 -89.25355291 46.12770915 -94.90966797 45.95239258 C-96.85873047 45.88761719 -96.85873047 45.88761719 -98.84716797 45.8215332 C-102.03457642 45.71606748 -105.22205495 45.6139481 -108.40966797 45.51489258 C-108.40966797 44.85489258 -108.40966797 44.19489258 -108.40966797 43.51489258 C-98.06085366 39.67371105 -88.1037579 37.7629071 -77.09716797 37.13989258 C-68.29630552 36.40168131 -64.24926048 33.67052911 -58.47216797 27.01489258 C-54.07354658 21.96685525 -50.64263056 19.65247911 -44.40966797 17.51489258 C-42.28168221 16.60517867 -40.15678363 15.68821694 -38.03466797 14.76489258 C-32.78918604 12.51489258 -32.78918604 12.51489258 -29.40966797 12.51489258 C-29.8915241 17.23708268 -32.10630229 20.2154363 -34.97216797 23.82739258 C-35.60928711 24.65207031 -35.60928711 24.65207031 -36.25927734 25.4934082 C-37.30148056 26.84007528 -38.3545064 28.17835459 -39.40966797 29.51489258 C-36.89400211 29.51489258 -34.90706883 28.84336194 -32.49169922 28.12426758 C-31.49219238 27.8285083 -30.49268555 27.53274902 -29.46289062 27.22802734 C-28.39345215 26.91019287 -27.32401367 26.5923584 -26.22216797 26.26489258 C-24.01790494 25.6224024 -21.81347817 24.98047369 -19.60888672 24.33911133 C-16.09928516 23.31395909 -12.60056348 22.26866699 -9.11669922 21.15942383 C3.91952893 17.22154466 17.37167388 17.25390202 30.59033203 20.51489258 C29.24029816 19.28118816 27.88504774 18.05319174 26.52783203 16.82739258 C25.77373047 16.14290039 25.01962891 15.4584082 24.24267578 14.75317383 C23.36740234 14.01454102 22.49212891 13.2759082 21.59033203 12.51489258 C21.11152588 12.06500977 20.63271973 11.61512695 20.1394043 11.15161133 C14.76974891 6.5962303 9.45834064 6.83975992 2.65283203 6.88989258 C-4.76440055 6.88989258 -10.60175411 6.61163318 -17.40966797 3.51489258 C-17.40966797 2.85489258 -17.40966797 2.19489258 -17.40966797 1.51489258 C-12.57756067 -0.90116107 -5.36474913 0.0759403 0 0 Z " fill="#101514" transform="translate(368.40966796875,375.485107421875)"/>
<path d="M0 0 C8.65183106 7.14716479 13.02310425 14.75868298 14.1484375 26.140625 C14.19675801 29.1364969 14.23366335 31.6576733 12.875 34.375 C-0.985 34.375 -14.845 34.375 -29.125 34.375 C-26.15423533 41.41233308 -26.15423533 41.41233308 -21.125 45.375 C-15.23253105 47.33915632 -10.44094804 46.41145916 -4.82421875 44.2265625 C-2.92755169 43.38778881 -2.92755169 43.38778881 -1.125 41.375 C2.87739656 41.26064581 4.94901125 43.08218911 7.75 45.6875 C9.6171875 47.48828125 9.6171875 47.48828125 10.875 49.375 C10.8671875 51.41015625 10.8671875 51.41015625 9.875 53.375 C7.765625 55.0078125 7.765625 55.0078125 5.125 56.5 C4.26390625 56.99757813 3.4028125 57.49515625 2.515625 58.0078125 C-6.75519745 62.80779454 -18.20398657 63.03947971 -28.1875 59.875 C-35.59175598 56.65673676 -40.46397561 51.61289237 -43.5625 44.1875 C-47.29963396 33.81402053 -47.09778851 23.66813386 -43.125 13.375 C-39.39206922 5.76556419 -33.9844772 0.65920297 -26.05078125 -2.43359375 C-17.36799385 -4.90707935 -7.99875007 -4.15935004 0 0 Z M-24.125 13.375 C-27.17791301 16.96376243 -27.17791301 16.96376243 -28.125 21.375 C-15.609536 22.39009995 -15.609536 22.39009995 -3.125 21.375 C-3.3398959 17.6143218 -4.09739906 16.40391527 -6.75 13.625 C-12.56905286 9.23640643 -17.98806031 9.78546924 -24.125 13.375 Z " fill="#1D1F20" transform="translate(810.125,288.625)"/>
<path d="M0 0 C7.78402228 5.44561229 13.43380121 11.79376184 16 21 C17.40907876 31.89481413 16.70942658 41.93090221 10 51 C4.18463688 57.43843774 -2.59546212 61.67283356 -11.35546875 62.203125 C-22.83274894 62.34351986 -30.39234992 61.38809212 -38.984375 53.26171875 C-47.00735988 44.25918339 -47.65802344 34.71551823 -47.18359375 23.16552734 C-46.50222735 15.12866572 -42.34418545 8.89862797 -36.4765625 3.6328125 C-26.0524483 -4.63796355 -11.98112287 -4.95448254 0 0 Z M-26 15 C-30.43680439 20.57895205 -30.66088495 26.72167276 -30.453125 33.64453125 C-29.64570212 39.62363687 -27.16589601 43.12679264 -22.6875 47 C-17.69219021 48.85871992 -13.63430758 48.59715085 -8.75 46.8125 C-4.76438846 44.18561967 -2.51019469 41.53058408 -1 37 C-0.85351918 34.73236426 -0.7790374 32.45967634 -0.75 30.1875 C-0.72421875 28.98480469 -0.6984375 27.78210938 -0.671875 26.54296875 C-1.20733396 20.76128689 -3.59100255 16.7200916 -8 13 C-13.86122794 11.04625735 -21.27538567 10.55330416 -26 15 Z " fill="#222629" transform="translate(916,288)"/>
<path d="M0 0 C5.28 0 10.56 0 16 0 C16.0501123 1.21582764 16.10022461 2.43165527 16.15185547 3.68432617 C16.34049671 8.20410811 16.54081575 12.72331054 16.74462891 17.24243164 C16.83114058 19.19672062 16.91450383 21.15115165 16.99462891 23.10571289 C17.11049016 25.91856658 17.23774302 28.73071141 17.3671875 31.54296875 C17.40061249 32.41398727 17.43403748 33.2850058 17.46847534 34.18241882 C17.67730511 38.47766396 17.91199679 42.135749 20 46 C23.5664833 48.5410251 26.64204555 48.19441536 30.8125 47.59765625 C34.35460387 46.62990287 35.89050038 44.94051463 38 42 C40.29514562 35.81950072 40.39563346 29.79442412 40.5625 23.25 C40.79366837 15.45913421 41.22550928 7.75770873 42 0 C46.95 0 51.9 0 57 0 C57 20.46 57 40.92 57 62 C52.05 62 47.1 62 42 62 C41.67 60.35 41.34 58.7 41 57 C40.45730469 57.34933594 39.91460938 57.69867188 39.35546875 58.05859375 C38.64003906 58.51363281 37.92460938 58.96867187 37.1875 59.4375 C36.12595703 60.11619141 36.12595703 60.11619141 35.04296875 60.80859375 C31.08520941 63.11665608 27.69113239 63.19244559 23.1875 63.25 C21.38345703 63.28867187 21.38345703 63.28867187 19.54296875 63.328125 C14.22175154 62.83531106 10.27372978 60.89423036 6.8125 56.8125 C6.34457031 56.28269531 5.87664063 55.75289063 5.39453125 55.20703125 C1.13736493 48.46949912 0.54090921 42.14187451 0.48828125 34.375 C0.47033005 33.38749756 0.45237885 32.39999512 0.43388367 31.38256836 C0.38007319 28.2550879 0.345979 25.12775748 0.3125 22 C0.2793011 19.86846884 0.24480909 17.7369574 0.20898438 15.60546875 C0.12436356 10.4037546 0.05741323 5.2020827 0 0 Z " fill="#1D1E20" transform="translate(1000,287)"/>
<path d="M0 0 C4.95 0 9.9 0 15 0 C16.01563524 9.6779127 16.2965869 19.33606968 16.47680664 29.05786133 C16.51650404 31.11047816 16.56795292 33.16253701 16.62109375 35.21484375 C16.6461499 36.42261475 16.67120605 37.63038574 16.69702148 38.87475586 C16.98424067 41.83744145 17.38785312 43.53502705 19 46 C22.44363995 48.5508444 25.84287961 48.43004694 30 48 C34.25640611 46.03550487 35.69251311 44.68357091 37.6262207 40.38476562 C39.15295009 36.03138293 39.55679033 31.92888512 39.73046875 27.34375 C39.770616 26.55601196 39.81076324 25.76827393 39.85212708 24.95666504 C39.97602942 22.47151769 40.08206729 19.98599227 40.1875 17.5 C40.26899627 15.80202599 40.35166772 14.10410796 40.43554688 12.40625 C40.63727732 8.27135556 40.82300512 4.13602406 41 0 C45.95 0 50.9 0 56 0 C56 20.46 56 40.92 56 62 C51.05 62 46.1 62 41 62 C40.67 60.35 40.34 58.7 40 57 C39.45730469 57.34933594 38.91460938 57.69867188 38.35546875 58.05859375 C37.64003906 58.51363281 36.92460938 58.96867187 36.1875 59.4375 C35.12595703 60.11619141 35.12595703 60.11619141 34.04296875 60.80859375 C28.50261885 64.03958174 22.2110206 63.42121595 16 63 C9.75429752 60.88092237 5.7760332 56.77994111 2.75 51 C-0.24052709 44.92089576 -0.13600052 38.95770343 -0.09765625 32.32421875 C-0.0962413 31.3990596 -0.09482635 30.47390045 -0.09336853 29.52070618 C-0.08778715 26.57627073 -0.07523805 23.63191233 -0.0625 20.6875 C-0.05748259 18.68685006 -0.05292011 16.68619892 -0.04882812 14.68554688 C-0.03782381 9.79033506 -0.02057198 4.89518058 0 0 Z " fill="#1C1E1E" transform="translate(559,287)"/>
<path d="M0 0 C4.08945298 2.86409343 6.09842758 4.81349132 7.7265625 9.640625 C6.32103951 10.67674771 4.90164556 11.69407425 3.4765625 12.703125 C2.68765625 13.27160156 1.89875 13.84007812 1.0859375 14.42578125 C-1.2734375 15.640625 -1.2734375 15.640625 -3.43359375 15.44921875 C-5.2734375 14.640625 -5.2734375 14.640625 -7.4609375 12.640625 C-11.16942541 10.00347804 -14.74052638 9.38596707 -19.2734375 9.640625 C-22.39818377 11.27536016 -22.39818377 11.27536016 -22.9609375 13.765625 C-23.0640625 14.384375 -23.1671875 15.003125 -23.2734375 15.640625 C-22.02046875 16.04667969 -22.02046875 16.04667969 -20.7421875 16.4609375 C-17.04611921 17.7179337 -13.40475618 19.08510552 -9.7734375 20.515625 C-9.13535156 20.75925781 -8.49726562 21.00289063 -7.83984375 21.25390625 C-1.61638615 23.71019933 3.74149773 26.35627811 6.7265625 32.640625 C8.72613274 37.91221926 8.44941605 43.65404107 6.2265625 48.765625 C3.26601554 54.11778819 -1.46379745 57.16556397 -6.7734375 59.953125 C-14.90448486 62.18916302 -22.72645992 62.09427945 -30.54296875 58.63671875 C-35.27876745 55.89303422 -39.38760568 52.33277377 -42.2734375 47.640625 C-42.6484375 44.703125 -42.6484375 44.703125 -42.2734375 42.640625 C-35.39923707 38.66621135 -35.39923707 38.66621135 -31.5234375 38.578125 C-28.53364701 39.98997051 -27.25001205 42.02644576 -25.2734375 44.640625 C-21.79324769 47.16076245 -18.46794146 47.00856394 -14.2734375 46.640625 C-11.30834217 45.63020282 -11.30834217 45.63020282 -9.2734375 43.640625 C-9.10138663 41.06490309 -9.10138663 41.06490309 -9.2734375 38.640625 C-11.04280633 37.88717649 -12.8140406 37.13810883 -14.5859375 36.390625 C-15.67777344 35.92914063 -16.76960938 35.46765625 -17.89453125 34.9921875 C-20.95276293 33.76889483 -24.01030276 32.75843241 -27.1484375 31.765625 C-32.32312512 29.88867906 -35.70341552 27.59500197 -38.2734375 22.640625 C-40.28929498 16.33963048 -39.25196755 10.45532888 -36.2734375 4.640625 C-32.90517866 -0.44500266 -28.66694373 -2.42807403 -22.8515625 -3.890625 C-14.56928111 -5.39649434 -7.28039155 -4.35322382 0 0 Z " fill="#202225" transform="translate(1108.2734375,289.359375)"/>
<path d="M0 0 C2.55806759 2.15132504 5.00272092 4.30991474 7 7 C7 7.99 7 8.98 7 10 C5.42466914 10.86883706 3.83935491 11.71959068 2.25 12.5625 C1.36828125 13.03816406 0.4865625 13.51382812 -0.421875 14.00390625 C-3.25872867 15.09996335 -4.24412053 15.16685109 -7 14 C-8.69774938 12.70647667 -10.36739286 11.37482707 -12 10 C-14.52053595 8.73973202 -15.8542098 9.08125555 -18.625 9.4375 C-19.44226563 9.53933594 -20.25953125 9.64117187 -21.1015625 9.74609375 C-21.72804688 9.82988281 -22.35453125 9.91367187 -23 10 C-23.33 10.99 -23.66 11.98 -24 13 C-21.84714722 15.40743716 -20.09947294 16.54486397 -17.05078125 17.578125 C-16.28822021 17.84850586 -15.52565918 18.11888672 -14.73999023 18.39746094 C-13.53838257 18.81946777 -13.53838257 18.81946777 -12.3125 19.25 C-5.61167357 21.72051007 0.50186886 24.15676856 5 30 C6.91957414 35.75872241 7.12998497 42.67868904 5.1640625 48.45703125 C1.75639285 54.43760585 -3.56518868 57.85506289 -10 60 C-21.10210606 60.68482742 -29.09316306 60.48384115 -37.8125 53.1875 C-41.58196058 49.84502257 -42.5693702 47.86125961 -45 43 C-41.04 41.02 -37.08 39.04 -33 37 C-30.94789023 39.05210977 -28.89715669 41.10586811 -26.875 43.1875 C-24.05572221 45.91280187 -23.20338366 45.99015886 -19.125 46.1875 C-14.69100748 46.18021478 -14.69100748 46.18021478 -11 44 C-10.18129815 40.43793339 -10.18129815 40.43793339 -10 37 C-11.2375 36.5875 -12.475 36.175 -13.75 35.75 C-14.56726563 35.47285156 -15.38453125 35.19570313 -16.2265625 34.91015625 C-18.14796855 34.27961032 -20.08159758 33.6855821 -22.0234375 33.12109375 C-29.45307028 30.88471814 -35.30341348 28.45522991 -39.4375 21.625 C-40.87733239 14.90578218 -40.30864417 10.04683245 -37 4 C-28.03919638 -6.65609079 -11.29112697 -8.25879374 0 0 Z " fill="#202224" transform="translate(698,290)"/>
<path d="M0 0 C3.90969435 2.47672945 7.61368021 5.71834741 10.375 9.4375 C10.375 10.4275 10.375 11.4175 10.375 12.4375 C8.79966914 13.30633706 7.21435491 14.15709068 5.625 15 C4.74328125 15.47566406 3.8615625 15.95132812 2.953125 16.44140625 C0.11165988 17.53924505 -0.87457953 17.64698722 -3.625 16.4375 C-4.553125 15.591875 -5.48125 14.74625 -6.4375 13.875 C-9.01704519 11.60971412 -9.64083796 11.43562092 -13.3125 11 C-16.75740124 11.20728396 -16.75740124 11.20728396 -19.625 13.4375 C-19.625 14.7575 -19.625 16.0775 -19.625 17.4375 C-19.02550537 17.67871582 -18.42601074 17.91993164 -17.80834961 18.16845703 C-15.05388847 19.28597064 -12.30835729 20.42401831 -9.5625 21.5625 C-8.61955078 21.94148438 -7.67660156 22.32046875 -6.70507812 22.7109375 C-0.96201117 25.11221985 4.23162898 27.66250267 8.375 32.4375 C10.29457414 38.19622241 10.50498497 45.11618904 8.5390625 50.89453125 C5.13139285 56.87510585 -0.19018868 60.29256289 -6.625 62.4375 C-17.72710606 63.12232742 -25.71816306 62.92134115 -34.4375 55.625 C-38.20696058 52.28252257 -39.1943702 50.29875961 -41.625 45.4375 C-37.665 43.4575 -33.705 41.4775 -29.625 39.4375 C-27.57289023 41.48960977 -25.52215669 43.54336811 -23.5 45.625 C-20.68072221 48.35030187 -19.82838366 48.42765886 -15.75 48.625 C-11.31600748 48.61771478 -11.31600748 48.61771478 -7.625 46.4375 C-6.80629815 42.87543339 -6.80629815 42.87543339 -6.625 39.4375 C-7.82125 39.045625 -9.0175 38.65375 -10.25 38.25 C-11.06339844 37.97285156 -11.87679687 37.69570313 -12.71484375 37.41015625 C-14.84260391 36.69899883 -16.98264764 36.02430289 -19.12890625 35.37109375 C-26.23643418 33.08733875 -31.8568834 31.20407533 -35.625 24.4375 C-37.59834061 18.51747816 -37.0456344 12.94355825 -34.66796875 7.26171875 C-32.39425729 3.28485264 -29.17571405 1.08042378 -24.94921875 -0.671875 C-17.51912466 -2.66254651 -7.12486824 -3.26790217 0 0 Z " fill="#202323" transform="translate(539.625,287.5625)"/>
<path d="M0 0 C1.98654399 1.90600843 3.4150437 3.72822931 5 6 C3.96795898 9.21079428 2.41251338 10.59940291 -0.375 12.3125 C-4 14 -4 14 -6.01953125 13.765625 C-8.17268434 12.93324235 -9.54848014 11.91523501 -11.3125 10.4375 C-14.91322103 7.75825381 -17.47987023 7.39152099 -22 8 C-22.99 8.66 -23.98 9.32 -25 10 C-25 11.32 -25 12.64 -25 14 C-24.43603516 14.20568604 -23.87207031 14.41137207 -23.29101562 14.62329102 C-20.68690879 15.58490172 -18.09379665 16.57343288 -15.5 17.5625 C-14.1696875 18.04686523 -14.1696875 18.04686523 -12.8125 18.54101562 C-5.67485038 21.29635831 0.96880764 24.93761529 4.5 32 C5.5899213 38.53952778 5.40892018 44.22408873 2 50 C-3.0236491 55.65576389 -7.88504027 58.60679274 -15.515625 59.3359375 C-24.45757549 59.42947255 -32.12126199 59.20735204 -39.12890625 53.1640625 C-42.71037141 49.3872447 -44.86517381 46.39304753 -45 41 C-38.12579957 37.02558635 -38.12579957 37.02558635 -34.25 36.9375 C-31.26020951 38.34934551 -29.97657455 40.38582076 -28 43 C-24.51981019 45.52013745 -21.19450396 45.36793894 -17 45 C-14.03490467 43.98957782 -14.03490467 43.98957782 -12 42 C-11.82794913 39.42427809 -11.82794913 39.42427809 -12 37 C-12.72703125 36.69707031 -13.4540625 36.39414062 -14.203125 36.08203125 C-16.32082546 35.19965606 -18.43657638 34.31259326 -20.55078125 33.421875 C-22.78399551 32.50127478 -25.03113397 31.61347766 -27.29296875 30.765625 C-38.2046371 26.59072581 -38.2046371 26.59072581 -41 21 C-41.93520696 14.42781161 -41.99671789 7.50650915 -38.53125 1.65234375 C-28.55534238 -9.11247493 -11.21745707 -7.62625678 0 0 Z " fill="#202223" transform="translate(754,291)"/>
<path d="M0 0 C4.68485758 3.2507175 7.49178872 6.45490613 9.73046875 11.7109375 C9.62109375 13.77734375 9.62109375 13.77734375 8.73046875 15.7109375 C6.5859375 17.01171875 6.5859375 17.01171875 3.91796875 18.0234375 C3.04527344 18.37019531 2.17257812 18.71695312 1.2734375 19.07421875 C-1.45342125 19.75698062 -2.70774095 19.82141312 -5.26953125 18.7109375 C-6.03265625 17.7415625 -6.79578125 16.7721875 -7.58203125 15.7734375 C-10.34801657 12.27154783 -12.76644675 11.25441322 -17.26953125 10.7109375 C-21.94632917 11.83981976 -24.46921726 13.50078177 -27.14453125 17.3984375 C-30.70252682 23.83336019 -30.81823766 29.61843938 -28.99609375 36.6640625 C-27.59473971 40.61196313 -25.55634525 42.92455117 -22.01953125 45.0859375 C-18.22350902 45.94866982 -14.99362613 45.90204477 -11.26953125 44.7109375 C-8.37233715 42.39820308 -8.37233715 42.39820308 -6.26953125 39.7109375 C-5.60953125 39.0509375 -4.94953125 38.3909375 -4.26953125 37.7109375 C0.54086402 38.04654647 4.48057419 39.54432458 8.73046875 41.7109375 C9.73046875 44.7109375 9.73046875 44.7109375 8.83203125 46.76171875 C4.47587407 53.43424522 -0.60560054 58.15629393 -8.26953125 60.7109375 C-18.02773024 61.43993849 -27.15242762 61.98185778 -35.26953125 55.7109375 C-42.16575159 49.68342708 -46.01340381 42.57511921 -46.6484375 33.421875 C-46.98370496 24.86896896 -46.6757118 17.27681331 -42.26953125 9.7109375 C-41.74359375 8.73253906 -41.74359375 8.73253906 -41.20703125 7.734375 C-37.38672458 1.49984675 -31.41874306 -1.10810807 -24.76953125 -3.6015625 C-16.03470508 -5.31733193 -7.83709254 -4.45136065 0 0 Z " fill="#1F2225" transform="translate(983.26953125,289.2890625)"/>
<path d="M0 0 C1.15725586 0.00773437 1.15725586 0.00773437 2.33789062 0.015625 C8.00204964 0.09477482 8.00204964 0.09477482 10.3125 1.25 C9.49819712 10.85877404 9.49819712 10.85877404 6.3125 14.25 C3.58051798 14.97348931 1.16515124 15.10970568 -1.6875 15.25 C-2.86415969 19.25064296 -3.86829905 23.15399524 -4.6875 27.25 C0.2625 27.25 5.2125 27.25 10.3125 27.25 C10.3125 31.21 10.3125 35.17 10.3125 39.25 C5.3625 39.25 0.4125 39.25 -4.6875 39.25 C-4.6875 55.75 -4.6875 72.25 -4.6875 89.25 C-9.6375 89.25 -14.5875 89.25 -19.6875 89.25 C-20.33021932 85.3936841 -20.81219151 82.3957292 -20.80102539 78.62158203 C-20.80094986 77.76114288 -20.80087433 76.90070374 -20.80079651 76.01419067 C-20.79563522 75.10458588 -20.79047394 74.19498108 -20.78515625 73.2578125 C-20.7837413 72.31187225 -20.78232635 71.36593201 -20.78086853 70.3913269 C-20.77529484 67.38585171 -20.7627472 64.38045247 -20.75 61.375 C-20.7449816 59.33073025 -20.74041929 57.28645932 -20.73632812 55.2421875 C-20.72533403 50.24476264 -20.70808757 45.24739417 -20.6875 40.25 C-21.31398438 40.26160156 -21.94046875 40.27320313 -22.5859375 40.28515625 C-23.40320313 40.29417969 -24.22046875 40.30320312 -25.0625 40.3125 C-26.28066406 40.32990234 -26.28066406 40.32990234 -27.5234375 40.34765625 C-29.6875 40.25 -29.6875 40.25 -31.6875 39.25 C-31.6875 35.29 -31.6875 31.33 -31.6875 27.25 C-29.28204362 26.04727181 -27.73753047 26.14928528 -25.0625 26.1875 C-23.83660156 26.20103516 -23.83660156 26.20103516 -22.5859375 26.21484375 C-21.95945312 26.22644531 -21.33296875 26.23804688 -20.6875 26.25 C-20.72875 25.115625 -20.77 23.98125 -20.8125 22.8125 C-20.78018391 16.72630337 -20.24445586 10.79091248 -16.375 5.875 C-11.00659392 0.63144057 -7.25033425 -0.196786 0 0 Z " fill="#1C1E1F" transform="translate(857.6875,259.75)"/>
<path d="M0 0 C4.95 0 9.9 0 15 0 C15 20.46 15 40.92 15 62 C10.05 62 5.1 62 0 62 C0 41.54 0 21.08 0 0 Z " fill="#191A1A" transform="translate(631,287)"/>
<path d="M0 0 C2.1997495 2.03897306 3.64010723 3.91225158 4.98046875 6.58984375 C5.51281128 7.63313843 5.51281128 7.63313843 6.0559082 8.69750977 C6.4293335 9.43670654 6.80275879 10.17590332 7.1875 10.9375 C13.06398824 22.26264049 20.14574569 32.42052914 27.96411133 42.48266602 C30.56336731 45.87047461 32.68113886 48.87657271 34 53 C27.51255795 51.63101021 22.8887315 48.58801725 17.5 44.8125 C16.68402344 44.26013672 15.86804688 43.70777344 15.02734375 43.13867188 C8.35251663 38.52629134 2.79247964 33.30995555 -2.375 27.0625 C-8.86481699 19.57978418 -16.52179253 13.74480221 -24.59375 8.078125 C-27.02553275 5.97794899 -27.71738264 5.13705267 -28 2 C-16.57300514 6.3762959 -6.10332146 11.77199791 3 20 C2.7834375 19.14277344 2.566875 18.28554688 2.34375 17.40234375 C-0.42179262 6.0456942 -0.42179262 6.0456942 0 0 Z " fill="#181D1D" transform="translate(355,282)"/>
<path d="M0 0 C-2.22935197 6.6880559 -12.66030471 11.00728151 -18.5859375 14.54296875 C-24.12749104 17.23596933 -28.93685483 17.00545112 -34.9375 16.75 C-42.39755883 16.4558868 -46.59220125 17.52842573 -52.34765625 22.6640625 C-59.01058178 28.53214713 -65.48595271 31.93820873 -74.0625 34.125 C-75.41927856 34.49165771 -75.41927856 34.49165771 -76.8034668 34.86572266 C-79.53096831 35.59673626 -82.26376778 36.30245066 -85 37 C-86.25006836 37.32194336 -86.25006836 37.32194336 -87.52539062 37.65039062 C-92.00888412 38.80140974 -96.49941169 39.91782177 -101 41 C-101.495 39.515 -101.495 39.515 -102 38 C-101.48614746 37.72325439 -100.97229492 37.44650879 -100.44287109 37.16137695 C-98.0830889 35.88535248 -95.7290714 34.59902739 -93.375 33.3125 C-92.56675781 32.87744141 -91.75851563 32.44238281 -90.92578125 31.99414062 C-87.21159933 29.95587006 -83.80437398 27.97197009 -80.625 25.15625 C-78 23 -78 23 -74.625 23.1875 C-73.42875 23.455625 -72.2325 23.72375 -71 24 C-66.55433231 24.65591818 -64.4014786 24.86055704 -60.55078125 22.49609375 C-57.09772424 19.79393122 -53.88499094 17.23981248 -51.32421875 13.65234375 C-49.32013288 10.94037075 -48.03841758 9.53838534 -45 8 C-40.57653398 7.70523113 -36.19697441 8.22269845 -31.79516602 8.64916992 C-24.07725734 9.3015892 -20.04451006 7.8966637 -14 3 C-4.26137464 -2.13068732 -4.26137464 -2.13068732 0 0 Z " fill="#181F1C" transform="translate(299,380)"/>
<path d="M0 0 C4.95 0 9.9 0 15 0 C15 4.62 15 9.24 15 14 C10.05 14 5.1 14 0 14 C0 9.38 0 4.76 0 0 Z " fill="#1A1B1B" transform="translate(631,261)"/>
<path d="M0 0 C4.64243317 1.69627366 7.43066855 3.75072107 10 8 C10 9.98 10 11.96 10 14 C0.76 14 -8.48 14 -18 14 C-14.61290323 3.83870968 -14.61290323 3.83870968 -10 1 C-6.79821961 -0.60089019 -3.48231013 -0.3573266 0 0 Z M-12 4 C-15.05291301 7.58876243 -15.05291301 7.58876243 -16 12 C-3.484536 13.01509995 -3.484536 13.01509995 9 12 C8.7851041 8.2393218 8.02760094 7.02891527 5.375 4.25 C-0.44405286 -0.13859357 -5.86306031 0.41046924 -12 4 Z " fill="#94B8D4" transform="translate(798,298)"/>
<path d="M0 0 C0.66 0.33 1.32 0.66 2 1 C-4.93 7.93 -11.86 14.86 -19 22 C-19.66 21.67 -20.32 21.34 -21 21 C-16.18409819 15.45948333 -11.34386708 10.21211233 -5.73046875 5.47265625 C-3.70895696 3.75231777 -1.83779134 1.91436598 0 0 Z " fill="#262F2C" transform="translate(216,311)"/>
<path d="M0 0 C0 3 0 3 -1.75 5.04296875 C-2.4925 5.75066406 -3.235 6.45835937 -4 7.1875 C-4.7425 7.90292969 -5.485 8.61835938 -6.25 9.35546875 C-6.8275 9.89816406 -7.405 10.44085938 -8 11 C-8 8 -8 8 -6.25 5.95703125 C-5.5075 5.24933594 -4.765 4.54164063 -4 3.8125 C-2.88625 2.73935547 -2.88625 2.73935547 -1.75 1.64453125 C-1.1725 1.10183594 -0.595 0.55914062 0 0 Z M-11 12 C-10.01 12.66 -9.02 13.32 -8 14 C-9.65 14.33 -11.3 14.66 -13 15 C-12.34 14.01 -11.68 13.02 -11 12 Z " fill="#374E4A" transform="translate(147,400)"/>
<path d="M0 0 C2.50037734 2.17424117 3.43628586 3.73045798 4 7 C2.68 7 1.36 7 0 7 C0 4.69 0 2.38 0 0 Z " fill="#2C3333" transform="translate(355,282)"/>
<path d="M0 0 C0.66 0.33 1.32 0.66 2 1 C-0.64 3.64 -3.28 6.28 -6 9 C-6 6 -6 6 -3.5625 3.375 C-2.716875 2.59125 -1.87125 1.8075 -1 1 C-0.67 0.67 -0.34 0.34 0 0 Z " fill="#233345" transform="translate(949,290)"/>
<path d="M0 0 C0.66 0.33 1.32 0.66 2 1 C0.6875 3.5 0.6875 3.5 -1 6 C-1.99 6 -2.98 6 -4 6 C-3.6875 4.125 -3.6875 4.125 -3 2 C-2.01 1.34 -1.02 0.68 0 0 Z " fill="#3B413D" transform="translate(86,420)"/>
</svg>
