<svg xmlns="http://www.w3.org/2000/svg" xmlns:xlink="http://www.w3.org/1999/xlink" width="500" zoomAndPan="magnify" viewBox="0 0 375 374.999991" height="500" preserveAspectRatio="xMidYMid meet" version="1.0"><defs><g/><clipPath id="bf6015ca64"><path d="M 75.367188 69 L 299.617188 69 L 299.617188 177.753906 L 75.367188 177.753906 Z M 75.367188 69 " clip-rule="nonzero"/></clipPath><clipPath id="26b70d2795"><path d="M 83 30.753906 L 292 30.753906 L 292 160 L 83 160 Z M 83 30.753906 " clip-rule="nonzero"/></clipPath></defs><g clip-path="url(#bf6015ca64)"><path fill="#ffffff" d="M 299.617188 177.871094 C 299.617188 177.871094 285.964844 162 283.402344 158.078125 C 280.84375 154.152344 273.167969 146.8125 269.238281 142.890625 C 265.3125 138.964844 267.535156 138.113281 264.460938 138.28125 C 261.390625 138.449219 261.222656 139.476562 259.167969 138.964844 C 257.117188 138.457031 253.03125 132.136719 248.765625 127.015625 C 244.5 121.890625 239.039062 120.359375 235.964844 115.578125 C 232.894531 110.800781 225.898438 95.953125 222.996094 91.175781 C 220.089844 86.398438 217.359375 88.785156 214.289062 85.714844 C 211.214844 82.644531 204.730469 73.425781 201.832031 72.574219 C 198.929688 71.722656 195.003906 76.839844 194.492188 77.183594 C 193.984375 77.523438 189.203125 86.226562 186.128906 86.742188 C 183.058594 87.25 173.5 103.296875 171.964844 104.832031 C 170.425781 106.367188 162.0625 106.023438 159.675781 106.199219 C 157.285156 106.367188 154.042969 115.582031 150.289062 117.636719 C 146.535156 119.679688 137.347656 132.035156 135.105469 132.144531 C 131.691406 132.292969 126.828125 141.511719 121.964844 145.097656 C 117.097656 148.6875 113.515625 150.21875 110.445312 150.476562 C 107.371094 150.734375 104.042969 155.851562 101.738281 156.359375 C 99.433594 156.871094 94.566406 164.300781 93.03125 165.066406 C 91.496094 165.835938 82.546875 174.273438 81.011719 174.78125 C 79.476562 175.292969 75.378906 177.871094 75.378906 177.871094 C 75.378906 177.871094 75.984375 175.578125 79.953125 173.015625 C 83.921875 170.453125 88.910156 164.566406 92.113281 162.523438 C 95.3125 160.476562 97.617188 155.480469 101.96875 153.304688 C 106.316406 151.128906 106.574219 148.441406 110.796875 147.289062 C 115.019531 146.140625 122.1875 142.042969 127.304688 134.105469 C 132.425781 126.167969 134.089844 130.523438 136.652344 127.582031 C 139.214844 124.636719 145.609375 117.855469 149.578125 114.910156 C 153.546875 111.96875 153.546875 105.441406 158.667969 103.777344 C 163.785156 102.113281 168.011719 104.035156 171.335938 100.707031 C 174.664062 97.375 177.859375 88.804688 183.496094 84.964844 C 189.128906 81.125 194.628906 69.859375 200.644531 69.859375 C 207.683594 69.859375 212.804688 82.917969 217.410156 84.835938 C 222.019531 86.75 225.859375 89.570312 231.363281 101.09375 C 236.871094 112.613281 238.148438 115.8125 244.800781 119.265625 C 251.457031 122.71875 257.21875 135.855469 260.800781 136.074219 C 264.382812 136.292969 265.789062 134.625 269.628906 139.875 C 273.46875 145.121094 281.152344 151.777344 285.242188 157.917969 C 289.335938 164.0625 297.734375 170.691406 299.617188 177.871094 Z M 299.617188 177.871094 " fill-opacity="1" fill-rule="nonzero"/></g><path fill="#ffffff" d="M 103.21875 172.140625 C 101.261719 173.074219 112.480469 162.851562 114.96875 159.730469 C 117.457031 156.609375 123.550781 153.316406 125.304688 150.496094 C 127.058594 147.675781 132.398438 148.792969 135.625 148.949219 C 138.855469 149.105469 144.308594 147.835938 147.890625 148.015625 C 151.480469 148.1875 151.511719 143.746094 155.191406 142.050781 C 158.867188 140.351562 163.984375 134.964844 162.566406 134.546875 C 161.148438 134.140625 156.800781 138.539062 154.605469 139.285156 C 152.414062 140.03125 150.21875 140.78125 147.757812 143.394531 C 145.289062 146.007812 138.359375 145.214844 135.8125 145.09375 C 132.042969 144.90625 138.402344 143.617188 144.847656 140.351562 C 151.300781 137.078125 151.292969 133.488281 156.054688 131.671875 C 160.8125 129.855469 166.296875 120.722656 169.453125 118.65625 C 172.609375 116.585938 177.234375 113.90625 179.234375 109.738281 C 181.234375 105.558594 182.082031 99.28125 186.085938 98.285156 C 190.085938 97.285156 197.460938 93.539062 195.890625 92.609375 C 194.320312 91.679688 189.011719 93.640625 187.414062 93.222656 C 185.816406 92.800781 196.394531 88.191406 196.515625 84.609375 C 196.640625 81.027344 198.46875 87.785156 199.304688 89.015625 C 200.144531 90.253906 203.433594 92.804688 197.164062 96.085938 C 190.890625 99.367188 200.941406 99.683594 202.78125 102.511719 C 204.617188 105.335938 213.554688 110.039062 211.753906 110.125 C 209.953125 110.207031 203.132812 106.28125 198.421875 107.078125 C 193.707031 107.875 199.265625 104.554688 197.683594 103.792969 C 196.101562 103.03125 193.007812 100.148438 189.230469 103.894531 C 185.453125 107.640625 184.375 114.933594 180.613281 118.339844 C 176.851562 121.746094 174.378906 128.191406 176.746094 127.585938 C 179.109375 126.980469 189.863281 116.570312 193.339844 115.375 C 196.816406 114.175781 202.867188 115.332031 208.003906 116.945312 C 213.140625 118.566406 202.570312 117.707031 203.777344 118.789062 C 204.984375 119.871094 198.105469 120.902344 198.589844 121.953125 C 199.078125 123 207.472656 124.167969 210.28125 129.222656 C 213.089844 134.277344 217.292969 136.53125 221.289062 135.703125 C 225.289062 134.875 226.789062 133.484375 223.015625 129.84375 C 219.238281 126.207031 215.871094 121.597656 218.6875 122.765625 C 221.507812 123.925781 227.058594 131.6875 229.933594 131.757812 C 232.804688 131.824219 232.949219 132.511719 236.847656 137.484375 C 240.738281 142.457031 250.277344 145.832031 252.164062 147.800781 C 254.046875 149.773438 257.320312 148.90625 254.757812 149.808594 C 252.195312 150.710938 251.382812 148.960938 247.039062 149.601562 C 242.695312 150.246094 241.125 145.554688 237.921875 144.886719 C 234.722656 144.21875 228.632812 139.992188 225.152344 141.359375 C 221.671875 142.726562 210.570312 141.839844 201.71875 146.367188 C 192.875 150.890625 202.644531 142.140625 205.539062 141.769531 C 208.429688 141.398438 204.269531 138.289062 201.757812 138.167969 C 199.246094 138.046875 199.164062 136.164062 195.484375 134.105469 C 191.808594 132.046875 193.601562 128.542969 184.855469 134.609375 C 176.113281 140.675781 172.070312 138.769531 168.519531 141.5 C 164.972656 144.230469 159.085938 150.609375 154.886719 151.9375 C 150.6875 153.265625 145.222656 158.46875 141.417969 159.140625 C 137.609375 159.808594 144.207031 157.230469 144.851562 155.039062 C 145.496094 152.847656 139.488281 154.433594 136.992188 153.972656 C 134.5 153.511719 128.34375 154.40625 126.101562 156.175781 C 123.863281 157.941406 108.738281 169.507812 103.21875 172.140625 Z M 103.21875 172.140625 " fill-opacity="1" fill-rule="nonzero"/><path fill="#ffffff" d="M 283.582031 170.332031 C 283.582031 170.332031 270.785156 158.8125 266.6875 158.558594 C 262.589844 158.300781 259.515625 161.628906 254.914062 160.863281 C 250.308594 160.09375 245.1875 150.625 240.070312 150.367188 C 234.953125 150.109375 224.457031 151.136719 221.386719 150.367188 C 218.3125 149.601562 223.949219 153.949219 227.789062 153.441406 C 231.628906 152.929688 237.257812 152.414062 239.308594 154.207031 C 241.355469 156.003906 246.21875 159.074219 248.015625 161.378906 C 249.808594 163.683594 238.289062 157.449219 230.605469 160.308594 C 222.925781 163.167969 212.941406 164.449219 208.59375 167.007812 C 204.242188 169.570312 214.738281 160.09375 214.738281 156.003906 C 214.738281 156.003906 210.640625 159.238281 204.753906 160.308594 C 198.867188 161.378906 197.65625 170.847656 190.582031 170.335938 C 183.507812 169.828125 175.058594 172.382812 171.476562 173.917969 C 167.894531 175.453125 181.929688 172.726562 187.328125 174.601562 C 192.722656 176.480469 198.183594 171.019531 201.429688 171.1875 C 204.675781 171.355469 203.816406 176.238281 207.230469 174.996094 C 210.644531 173.75 215.078125 167.949219 219.519531 168.457031 C 223.957031 168.96875 230.953125 164.023438 234.539062 165.730469 C 238.121094 167.433594 247.507812 168.457031 251.257812 171.871094 C 255.011719 175.285156 255.015625 171.019531 249.554688 167.949219 C 244.09375 164.875 253.136719 167.265625 256.726562 167.097656 C 260.308594 166.929688 261.5 163 265.089844 164.535156 C 268.671875 166.070312 270.890625 168.96875 275.5 169.996094 C 280.109375 171.019531 285.398438 176.308594 289.324219 176.140625 C 293.25 175.972656 285.742188 164.277344 283.179688 163.210938 C 280.617188 162.144531 291.179688 174.9375 283.582031 170.332031 Z M 283.582031 170.332031 " fill-opacity="1" fill-rule="nonzero"/><path fill="#ffffff" d="M 190.226562 154.890625 C 185.972656 157.609375 181.011719 163.082031 173.847656 160.777344 C 166.675781 158.472656 162.328125 169.226562 155.929688 169.484375 C 149.535156 169.742188 142.105469 174.859375 138.523438 174.09375 C 134.941406 173.324219 146.460938 170.253906 149.527344 166.671875 C 152.601562 163.089844 152.523438 166.207031 157.464844 166.160156 C 162.40625 166.117188 166.425781 157.203125 170.265625 156.945312 C 174.105469 156.6875 178.714844 159.25 181.785156 156.433594 C 184.851562 153.609375 198.726562 149.460938 190.226562 154.890625 Z M 190.226562 154.890625 " fill-opacity="1" fill-rule="nonzero"/><path fill="#ffffff" d="M 215.75 107.613281 C 215.75 107.613281 222.40625 112.730469 224.625 116.652344 C 226.847656 120.578125 230.9375 120.992188 233.84375 123.859375 C 236.746094 126.722656 238.792969 126.816406 241.011719 127.878906 C 243.230469 128.9375 236.914062 122.457031 235.042969 119.382812 C 233.164062 116.3125 226.335938 107.949219 223.949219 100.609375 C 221.558594 93.273438 223.78125 107.4375 226.167969 111.703125 C 228.554688 115.96875 222.585938 108.632812 219.511719 106.410156 C 216.441406 104.191406 213.027344 104.191406 209.953125 101.636719 C 206.878906 99.078125 205.507812 101.132812 215.75 107.613281 Z M 215.75 107.613281 " fill-opacity="1" fill-rule="nonzero"/><g clip-path="url(#26b70d2795)"><path fill="#ffffff" d="M 86.386719 134.425781 C 86.386719 78.671875 131.746094 33.308594 187.503906 33.308594 C 243.261719 33.308594 288.617188 78.667969 288.617188 134.425781 C 288.617188 140.363281 288.097656 146.175781 287.117188 151.835938 C 287.855469 152.761719 288.554688 153.691406 289.199219 154.625 C 290.496094 148.085938 291.179688 141.335938 291.179688 134.425781 C 291.179688 77.261719 244.671875 30.753906 187.507812 30.753906 C 130.34375 30.753906 83.828125 77.261719 83.828125 134.425781 C 83.828125 143.238281 84.9375 151.796875 87.015625 159.972656 C 87.777344 159.328125 88.519531 158.753906 89.242188 158.289062 C 87.378906 150.632812 86.386719 142.644531 86.386719 134.425781 Z M 86.386719 134.425781 " fill-opacity="1" fill-rule="nonzero"/></g><g fill="#ffffff" fill-opacity="1"><g transform="translate(5.914968, 236.015974)"><g><path d="M 15.4375 0.6875 C 13.019531 0.6875 10.816406 0.25 8.828125 -0.625 C 6.835938 -1.5 5.164062 -2.664062 3.8125 -4.125 C 2.46875 -5.59375 1.507812 -7.21875 0.9375 -9 L 7.65625 -11.984375 C 7.976562 -11.148438 8.414062 -10.296875 8.96875 -9.421875 C 9.519531 -8.546875 10.285156 -7.804688 11.265625 -7.203125 C 12.242188 -6.597656 13.5 -6.296875 15.03125 -6.296875 C 16.34375 -6.296875 17.40625 -6.507812 18.21875 -6.9375 C 19.039062 -7.363281 19.648438 -7.898438 20.046875 -8.546875 C 20.441406 -9.191406 20.640625 -9.816406 20.640625 -10.421875 C 20.640625 -11.253906 20.328125 -11.914062 19.703125 -12.40625 C 19.078125 -12.90625 18.242188 -13.316406 17.203125 -13.640625 C 16.171875 -13.960938 15.035156 -14.273438 13.796875 -14.578125 C 12.554688 -14.878906 11.316406 -15.25 10.078125 -15.6875 C 8.847656 -16.125 7.710938 -16.695312 6.671875 -17.40625 C 5.640625 -18.125 4.8125 -19.054688 4.1875 -20.203125 C 3.5625 -21.347656 3.25 -22.796875 3.25 -24.546875 C 3.25 -26.367188 3.597656 -27.953125 4.296875 -29.296875 C 5.003906 -30.648438 5.957031 -31.769531 7.15625 -32.65625 C 8.363281 -33.550781 9.738281 -34.21875 11.28125 -34.65625 C 12.832031 -35.09375 14.4375 -35.3125 16.09375 -35.3125 C 19.070312 -35.3125 21.675781 -34.640625 23.90625 -33.296875 C 26.132812 -31.960938 27.90625 -30.128906 29.21875 -27.796875 L 22.671875 -24.234375 C 22.285156 -24.953125 21.796875 -25.644531 21.203125 -26.3125 C 20.617188 -26.976562 19.882812 -27.53125 19 -27.96875 C 18.125 -28.40625 17.066406 -28.625 15.828125 -28.625 C 14.441406 -28.625 13.347656 -28.328125 12.546875 -27.734375 C 11.753906 -27.148438 11.359375 -26.457031 11.359375 -25.65625 C 11.359375 -24.914062 11.675781 -24.3125 12.3125 -23.84375 C 12.945312 -23.382812 13.785156 -22.988281 14.828125 -22.65625 C 15.878906 -22.320312 17.03125 -21.984375 18.28125 -21.640625 C 19.53125 -21.296875 20.773438 -20.867188 22.015625 -20.359375 C 23.265625 -19.847656 24.414062 -19.195312 25.46875 -18.40625 C 26.519531 -17.625 27.359375 -16.625 27.984375 -15.40625 C 28.617188 -14.1875 28.9375 -12.664062 28.9375 -10.84375 C 28.9375 -8.832031 28.546875 -7.101562 27.765625 -5.65625 C 26.984375 -4.21875 25.9375 -3.023438 24.625 -2.078125 C 23.320312 -1.128906 21.875 -0.429688 20.28125 0.015625 C 18.695312 0.460938 17.082031 0.6875 15.4375 0.6875 Z M 15.4375 0.6875 "/></g></g></g><g fill="#ffffff" fill-opacity="1"><g transform="translate(35.971635, 236.015974)"><g><path d="M 16.578125 0.6875 C 13.671875 0.6875 11.285156 -0.0078125 9.421875 -1.40625 C 7.566406 -2.800781 6.195312 -4.78125 5.3125 -7.34375 C 4.425781 -9.90625 3.984375 -12.914062 3.984375 -16.375 L 3.984375 -34.59375 L 12.53125 -34.59375 L 12.53125 -16.09375 C 12.53125 -14.207031 12.695312 -12.582031 13.03125 -11.21875 C 13.363281 -9.851562 13.976562 -8.800781 14.875 -8.0625 C 15.78125 -7.320312 17.085938 -6.953125 18.796875 -6.953125 C 19.785156 -6.953125 20.753906 -7.113281 21.703125 -7.4375 C 22.648438 -7.757812 23.507812 -8.351562 24.28125 -9.21875 C 25.0625 -10.09375 25.675781 -11.316406 26.125 -12.890625 C 26.570312 -14.472656 26.796875 -16.507812 26.796875 -19 L 26.796875 -34.59375 L 35.390625 -34.59375 L 35.390625 0 L 26.796875 0 L 26.796875 -4.046875 C 25.546875 -2.429688 24.046875 -1.238281 22.296875 -0.46875 C 20.546875 0.300781 18.640625 0.6875 16.578125 0.6875 Z M 16.578125 0.6875 "/></g></g></g><g fill="#ffffff" fill-opacity="1"><g transform="translate(74.961799, 236.015974)"><g><path d="M 4.8125 -41.125 L 4.8125 -48.921875 L 13.609375 -48.921875 L 13.609375 -41.125 Z M 5.015625 0 L 5.015625 -34.59375 L 13.40625 -34.59375 L 13.40625 0 Z M 5.015625 0 "/></g></g></g><g fill="#ffffff" fill-opacity="1"><g transform="translate(91.964479, 236.015974)"><g><path d="M 15.4375 0.6875 C 13.019531 0.6875 10.816406 0.25 8.828125 -0.625 C 6.835938 -1.5 5.164062 -2.664062 3.8125 -4.125 C 2.46875 -5.59375 1.507812 -7.21875 0.9375 -9 L 7.65625 -11.984375 C 7.976562 -11.148438 8.414062 -10.296875 8.96875 -9.421875 C 9.519531 -8.546875 10.285156 -7.804688 11.265625 -7.203125 C 12.242188 -6.597656 13.5 -6.296875 15.03125 -6.296875 C 16.34375 -6.296875 17.40625 -6.507812 18.21875 -6.9375 C 19.039062 -7.363281 19.648438 -7.898438 20.046875 -8.546875 C 20.441406 -9.191406 20.640625 -9.816406 20.640625 -10.421875 C 20.640625 -11.253906 20.328125 -11.914062 19.703125 -12.40625 C 19.078125 -12.90625 18.242188 -13.316406 17.203125 -13.640625 C 16.171875 -13.960938 15.035156 -14.273438 13.796875 -14.578125 C 12.554688 -14.878906 11.316406 -15.25 10.078125 -15.6875 C 8.847656 -16.125 7.710938 -16.695312 6.671875 -17.40625 C 5.640625 -18.125 4.8125 -19.054688 4.1875 -20.203125 C 3.5625 -21.347656 3.25 -22.796875 3.25 -24.546875 C 3.25 -26.367188 3.597656 -27.953125 4.296875 -29.296875 C 5.003906 -30.648438 5.957031 -31.769531 7.15625 -32.65625 C 8.363281 -33.550781 9.738281 -34.21875 11.28125 -34.65625 C 12.832031 -35.09375 14.4375 -35.3125 16.09375 -35.3125 C 19.070312 -35.3125 21.675781 -34.640625 23.90625 -33.296875 C 26.132812 -31.960938 27.90625 -30.128906 29.21875 -27.796875 L 22.671875 -24.234375 C 22.285156 -24.953125 21.796875 -25.644531 21.203125 -26.3125 C 20.617188 -26.976562 19.882812 -27.53125 19 -27.96875 C 18.125 -28.40625 17.066406 -28.625 15.828125 -28.625 C 14.441406 -28.625 13.347656 -28.328125 12.546875 -27.734375 C 11.753906 -27.148438 11.359375 -26.457031 11.359375 -25.65625 C 11.359375 -24.914062 11.675781 -24.3125 12.3125 -23.84375 C 12.945312 -23.382812 13.785156 -22.988281 14.828125 -22.65625 C 15.878906 -22.320312 17.03125 -21.984375 18.28125 -21.640625 C 19.53125 -21.296875 20.773438 -20.867188 22.015625 -20.359375 C 23.265625 -19.847656 24.414062 -19.195312 25.46875 -18.40625 C 26.519531 -17.625 27.359375 -16.625 27.984375 -15.40625 C 28.617188 -14.1875 28.9375 -12.664062 28.9375 -10.84375 C 28.9375 -8.832031 28.546875 -7.101562 27.765625 -5.65625 C 26.984375 -4.21875 25.9375 -3.023438 24.625 -2.078125 C 23.320312 -1.128906 21.875 -0.429688 20.28125 0.015625 C 18.695312 0.460938 17.082031 0.6875 15.4375 0.6875 Z M 15.4375 0.6875 "/></g></g></g><g fill="#ffffff" fill-opacity="1"><g transform="translate(122.021146, 236.015974)"><g><path d="M 15.4375 0.6875 C 13.019531 0.6875 10.816406 0.25 8.828125 -0.625 C 6.835938 -1.5 5.164062 -2.664062 3.8125 -4.125 C 2.46875 -5.59375 1.507812 -7.21875 0.9375 -9 L 7.65625 -11.984375 C 7.976562 -11.148438 8.414062 -10.296875 8.96875 -9.421875 C 9.519531 -8.546875 10.285156 -7.804688 11.265625 -7.203125 C 12.242188 -6.597656 13.5 -6.296875 15.03125 -6.296875 C 16.34375 -6.296875 17.40625 -6.507812 18.21875 -6.9375 C 19.039062 -7.363281 19.648438 -7.898438 20.046875 -8.546875 C 20.441406 -9.191406 20.640625 -9.816406 20.640625 -10.421875 C 20.640625 -11.253906 20.328125 -11.914062 19.703125 -12.40625 C 19.078125 -12.90625 18.242188 -13.316406 17.203125 -13.640625 C 16.171875 -13.960938 15.035156 -14.273438 13.796875 -14.578125 C 12.554688 -14.878906 11.316406 -15.25 10.078125 -15.6875 C 8.847656 -16.125 7.710938 -16.695312 6.671875 -17.40625 C 5.640625 -18.125 4.8125 -19.054688 4.1875 -20.203125 C 3.5625 -21.347656 3.25 -22.796875 3.25 -24.546875 C 3.25 -26.367188 3.597656 -27.953125 4.296875 -29.296875 C 5.003906 -30.648438 5.957031 -31.769531 7.15625 -32.65625 C 8.363281 -33.550781 9.738281 -34.21875 11.28125 -34.65625 C 12.832031 -35.09375 14.4375 -35.3125 16.09375 -35.3125 C 19.070312 -35.3125 21.675781 -34.640625 23.90625 -33.296875 C 26.132812 -31.960938 27.90625 -30.128906 29.21875 -27.796875 L 22.671875 -24.234375 C 22.285156 -24.953125 21.796875 -25.644531 21.203125 -26.3125 C 20.617188 -26.976562 19.882812 -27.53125 19 -27.96875 C 18.125 -28.40625 17.066406 -28.625 15.828125 -28.625 C 14.441406 -28.625 13.347656 -28.328125 12.546875 -27.734375 C 11.753906 -27.148438 11.359375 -26.457031 11.359375 -25.65625 C 11.359375 -24.914062 11.675781 -24.3125 12.3125 -23.84375 C 12.945312 -23.382812 13.785156 -22.988281 14.828125 -22.65625 C 15.878906 -22.320312 17.03125 -21.984375 18.28125 -21.640625 C 19.53125 -21.296875 20.773438 -20.867188 22.015625 -20.359375 C 23.265625 -19.847656 24.414062 -19.195312 25.46875 -18.40625 C 26.519531 -17.625 27.359375 -16.625 27.984375 -15.40625 C 28.617188 -14.1875 28.9375 -12.664062 28.9375 -10.84375 C 28.9375 -8.832031 28.546875 -7.101562 27.765625 -5.65625 C 26.984375 -4.21875 25.9375 -3.023438 24.625 -2.078125 C 23.320312 -1.128906 21.875 -0.429688 20.28125 0.015625 C 18.695312 0.460938 17.082031 0.6875 15.4375 0.6875 Z M 15.4375 0.6875 "/></g></g></g><g fill="#ffffff" fill-opacity="1"><g transform="translate(152.077812, 236.015974)"><g><path d="M 19.421875 0.6875 C 16.441406 0.6875 13.851562 0.203125 11.65625 -0.765625 C 9.46875 -1.734375 7.644531 -3.054688 6.1875 -4.734375 C 4.738281 -6.421875 3.660156 -8.332031 2.953125 -10.46875 C 2.253906 -12.601562 1.90625 -14.835938 1.90625 -17.171875 C 1.90625 -19.429688 2.238281 -21.632812 2.90625 -23.78125 C 3.570312 -25.925781 4.597656 -27.867188 5.984375 -29.609375 C 7.367188 -31.359375 9.128906 -32.742188 11.265625 -33.765625 C 13.398438 -34.796875 15.9375 -35.3125 18.875 -35.3125 C 21.289062 -35.3125 23.394531 -34.957031 25.1875 -34.25 C 26.976562 -33.550781 28.492188 -32.601562 29.734375 -31.40625 C 30.984375 -30.207031 31.988281 -28.847656 32.75 -27.328125 C 33.507812 -25.816406 34.054688 -24.25 34.390625 -22.625 C 34.734375 -21 34.90625 -19.410156 34.90625 -17.859375 C 34.90625 -17.148438 34.875 -16.484375 34.8125 -15.859375 C 34.75 -15.234375 34.675781 -14.796875 34.59375 -14.546875 L 10.84375 -14.546875 C 11.09375 -13.046875 11.546875 -11.722656 12.203125 -10.578125 C 12.859375 -9.429688 13.785156 -8.539062 14.984375 -7.90625 C 16.191406 -7.269531 17.695312 -6.953125 19.5 -6.953125 C 21.0625 -6.953125 22.535156 -7.226562 23.921875 -7.78125 C 25.304688 -8.34375 26.597656 -9.289062 27.796875 -10.625 L 33.625 -5.546875 C 31.726562 -3.441406 29.613281 -1.875 27.28125 -0.84375 C 24.945312 0.175781 22.328125 0.6875 19.421875 0.6875 Z M 10.84375 -20.640625 L 26.59375 -20.640625 C 26.3125 -23.109375 25.488281 -24.988281 24.125 -26.28125 C 22.769531 -27.570312 20.992188 -28.21875 18.796875 -28.21875 C 17.140625 -28.21875 15.773438 -27.890625 14.703125 -27.234375 C 13.628906 -26.578125 12.785156 -25.675781 12.171875 -24.53125 C 11.554688 -23.382812 11.113281 -22.085938 10.84375 -20.640625 Z M 10.84375 -20.640625 "/></g></g></g><g fill="#ffffff" fill-opacity="1"><g transform="translate(187.60538, 236.015974)"><g><path d="M 7.03125 0 L 7.03125 -27.53125 L 0.6875 -27.53125 L 0.6875 -34.59375 L 7.09375 -34.59375 L 7.09375 -39.234375 C 7.09375 -40.910156 7.390625 -42.394531 7.984375 -43.6875 C 8.585938 -44.976562 9.40625 -46.066406 10.4375 -46.953125 C 11.46875 -47.847656 12.644531 -48.519531 13.96875 -48.96875 C 15.289062 -49.414062 16.679688 -49.640625 18.140625 -49.640625 C 19.296875 -49.640625 20.398438 -49.507812 21.453125 -49.25 C 22.503906 -48.988281 23.488281 -48.648438 24.40625 -48.234375 L 21.640625 -41.265625 C 21.242188 -41.523438 20.804688 -41.734375 20.328125 -41.890625 C 19.859375 -42.054688 19.394531 -42.140625 18.9375 -42.140625 C 18.082031 -42.140625 17.335938 -41.847656 16.703125 -41.265625 C 16.066406 -40.691406 15.75 -39.722656 15.75 -38.359375 L 15.75 -34.59375 L 23.8125 -34.59375 L 23.8125 -27.53125 L 15.75 -27.53125 L 15.75 0 Z M 7.03125 0 "/></g></g></g><g fill="#ffffff" fill-opacity="1"><g transform="translate(210.00971, 236.015974)"><g><path d="M 19.5 0.6875 C 16.8125 0.6875 14.382812 0.207031 12.21875 -0.75 C 10.050781 -1.707031 8.1875 -3.015625 6.625 -4.671875 C 5.070312 -6.335938 3.875 -8.257812 3.03125 -10.4375 C 2.1875 -12.613281 1.765625 -14.925781 1.765625 -17.375 C 1.765625 -19.820312 2.1875 -22.125 3.03125 -24.28125 C 3.875 -26.445312 5.070312 -28.351562 6.625 -30 C 8.1875 -31.644531 10.050781 -32.941406 12.21875 -33.890625 C 14.382812 -34.835938 16.8125 -35.3125 19.5 -35.3125 C 22.175781 -35.3125 24.597656 -34.835938 26.765625 -33.890625 C 28.929688 -32.941406 30.789062 -31.644531 32.34375 -30 C 33.90625 -28.351562 35.109375 -26.445312 35.953125 -24.28125 C 36.796875 -22.125 37.21875 -19.820312 37.21875 -17.375 C 37.21875 -14.925781 36.796875 -12.613281 35.953125 -10.4375 C 35.109375 -8.257812 33.90625 -6.335938 32.34375 -4.671875 C 30.789062 -3.015625 28.929688 -1.707031 26.765625 -0.75 C 24.597656 0.207031 22.175781 0.6875 19.5 0.6875 Z M 19.5 -6.578125 C 21.082031 -6.578125 22.445312 -6.867188 23.59375 -7.453125 C 24.738281 -8.046875 25.660156 -8.84375 26.359375 -9.84375 C 27.066406 -10.851562 27.585938 -12.007812 27.921875 -13.3125 C 28.253906 -14.613281 28.421875 -15.96875 28.421875 -17.375 C 28.421875 -18.8125 28.253906 -20.160156 27.921875 -21.421875 C 27.585938 -22.691406 27.066406 -23.820312 26.359375 -24.8125 C 25.660156 -25.8125 24.738281 -26.59375 23.59375 -27.15625 C 22.445312 -27.726562 21.082031 -28.015625 19.5 -28.015625 C 17.375 -28.015625 15.648438 -27.519531 14.328125 -26.53125 C 13.015625 -25.550781 12.054688 -24.253906 11.453125 -22.640625 C 10.859375 -21.023438 10.5625 -19.269531 10.5625 -17.375 C 10.5625 -15.96875 10.726562 -14.613281 11.0625 -13.3125 C 11.394531 -12.007812 11.914062 -10.851562 12.625 -9.84375 C 13.34375 -8.84375 14.269531 -8.046875 15.40625 -7.453125 C 16.539062 -6.867188 17.90625 -6.578125 19.5 -6.578125 Z M 19.5 -6.578125 "/></g></g></g><g fill="#ffffff" fill-opacity="1"><g transform="translate(247.649462, 236.015974)"><g><path d="M 18.734375 0.6875 C 15.910156 0.6875 13.445312 0.191406 11.34375 -0.796875 C 9.25 -1.785156 7.507812 -3.128906 6.125 -4.828125 C 4.738281 -6.523438 3.695312 -8.445312 3 -10.59375 C 2.3125 -12.738281 1.96875 -14.953125 1.96875 -17.234375 C 1.96875 -19.503906 2.304688 -21.71875 2.984375 -23.875 C 3.671875 -26.03125 4.703125 -27.96875 6.078125 -29.6875 C 7.453125 -31.40625 9.1875 -32.769531 11.28125 -33.78125 C 13.382812 -34.800781 15.84375 -35.3125 18.65625 -35.3125 C 22.09375 -35.3125 25.113281 -34.46875 27.71875 -32.78125 C 30.332031 -31.101562 32.300781 -28.539062 33.625 -25.09375 L 25.578125 -21.984375 C 25.140625 -23.648438 24.3125 -25.007812 23.09375 -26.0625 C 21.875 -27.125 20.394531 -27.65625 18.65625 -27.65625 C 17.207031 -27.65625 15.96875 -27.359375 14.9375 -26.765625 C 13.914062 -26.179688 13.078125 -25.390625 12.421875 -24.390625 C 11.773438 -23.390625 11.300781 -22.269531 11 -21.03125 C 10.707031 -19.800781 10.5625 -18.535156 10.5625 -17.234375 C 10.5625 -15.921875 10.707031 -14.648438 11 -13.421875 C 11.300781 -12.203125 11.769531 -11.101562 12.40625 -10.125 C 13.039062 -9.144531 13.875 -8.367188 14.90625 -7.796875 C 15.9375 -7.234375 17.1875 -6.953125 18.65625 -6.953125 C 20.363281 -6.953125 21.832031 -7.46875 23.0625 -8.5 C 24.300781 -9.53125 25.140625 -10.851562 25.578125 -12.46875 L 33.265625 -9.5625 C 32.503906 -7.40625 31.421875 -5.5625 30.015625 -4.03125 C 28.609375 -2.5 26.945312 -1.328125 25.03125 -0.515625 C 23.113281 0.285156 21.015625 0.6875 18.734375 0.6875 Z M 18.734375 0.6875 "/></g></g></g><g fill="#ffffff" fill-opacity="1"><g transform="translate(280.995594, 236.015974)"><g><path d="M 16.578125 0.6875 C 13.671875 0.6875 11.285156 -0.0078125 9.421875 -1.40625 C 7.566406 -2.800781 6.195312 -4.78125 5.3125 -7.34375 C 4.425781 -9.90625 3.984375 -12.914062 3.984375 -16.375 L 3.984375 -34.59375 L 12.53125 -34.59375 L 12.53125 -16.09375 C 12.53125 -14.207031 12.695312 -12.582031 13.03125 -11.21875 C 13.363281 -9.851562 13.976562 -8.800781 14.875 -8.0625 C 15.78125 -7.320312 17.085938 -6.953125 18.796875 -6.953125 C 19.785156 -6.953125 20.753906 -7.113281 21.703125 -7.4375 C 22.648438 -7.757812 23.507812 -8.351562 24.28125 -9.21875 C 25.0625 -10.09375 25.675781 -11.316406 26.125 -12.890625 C 26.570312 -14.472656 26.796875 -16.507812 26.796875 -19 L 26.796875 -34.59375 L 35.390625 -34.59375 L 35.390625 0 L 26.796875 0 L 26.796875 -4.046875 C 25.546875 -2.429688 24.046875 -1.238281 22.296875 -0.46875 C 20.546875 0.300781 18.640625 0.6875 16.578125 0.6875 Z M 16.578125 0.6875 "/></g></g></g><g fill="#ffffff" fill-opacity="1"><g transform="translate(319.985758, 236.015974)"><g><path d="M 15.4375 0.6875 C 13.019531 0.6875 10.816406 0.25 8.828125 -0.625 C 6.835938 -1.5 5.164062 -2.664062 3.8125 -4.125 C 2.46875 -5.59375 1.507812 -7.21875 0.9375 -9 L 7.65625 -11.984375 C 7.976562 -11.148438 8.414062 -10.296875 8.96875 -9.421875 C 9.519531 -8.546875 10.285156 -7.804688 11.265625 -7.203125 C 12.242188 -6.597656 13.5 -6.296875 15.03125 -6.296875 C 16.34375 -6.296875 17.40625 -6.507812 18.21875 -6.9375 C 19.039062 -7.363281 19.648438 -7.898438 20.046875 -8.546875 C 20.441406 -9.191406 20.640625 -9.816406 20.640625 -10.421875 C 20.640625 -11.253906 20.328125 -11.914062 19.703125 -12.40625 C 19.078125 -12.90625 18.242188 -13.316406 17.203125 -13.640625 C 16.171875 -13.960938 15.035156 -14.273438 13.796875 -14.578125 C 12.554688 -14.878906 11.316406 -15.25 10.078125 -15.6875 C 8.847656 -16.125 7.710938 -16.695312 6.671875 -17.40625 C 5.640625 -18.125 4.8125 -19.054688 4.1875 -20.203125 C 3.5625 -21.347656 3.25 -22.796875 3.25 -24.546875 C 3.25 -26.367188 3.597656 -27.953125 4.296875 -29.296875 C 5.003906 -30.648438 5.957031 -31.769531 7.15625 -32.65625 C 8.363281 -33.550781 9.738281 -34.21875 11.28125 -34.65625 C 12.832031 -35.09375 14.4375 -35.3125 16.09375 -35.3125 C 19.070312 -35.3125 21.675781 -34.640625 23.90625 -33.296875 C 26.132812 -31.960938 27.90625 -30.128906 29.21875 -27.796875 L 22.671875 -24.234375 C 22.285156 -24.953125 21.796875 -25.644531 21.203125 -26.3125 C 20.617188 -26.976562 19.882812 -27.53125 19 -27.96875 C 18.125 -28.40625 17.066406 -28.625 15.828125 -28.625 C 14.441406 -28.625 13.347656 -28.328125 12.546875 -27.734375 C 11.753906 -27.148438 11.359375 -26.457031 11.359375 -25.65625 C 11.359375 -24.914062 11.675781 -24.3125 12.3125 -23.84375 C 12.945312 -23.382812 13.785156 -22.988281 14.828125 -22.65625 C 15.878906 -22.320312 17.03125 -21.984375 18.28125 -21.640625 C 19.53125 -21.296875 20.773438 -20.867188 22.015625 -20.359375 C 23.265625 -19.847656 24.414062 -19.195312 25.46875 -18.40625 C 26.519531 -17.625 27.359375 -16.625 27.984375 -15.40625 C 28.617188 -14.1875 28.9375 -12.664062 28.9375 -10.84375 C 28.9375 -8.832031 28.546875 -7.101562 27.765625 -5.65625 C 26.984375 -4.21875 25.9375 -3.023438 24.625 -2.078125 C 23.320312 -1.128906 21.875 -0.429688 20.28125 0.015625 C 18.695312 0.460938 17.082031 0.6875 15.4375 0.6875 Z M 15.4375 0.6875 "/></g></g></g></svg>